[37m2026-04-01 01:11:17.824[39m[0m[0m	[32m[1mDEBUG[22m[39m[0m[0m	[37musr/lib/node_modules/@getpochi/cli/dist/cli.js:546423[39m[0m[0m[1m[37m	Pochi[39m[22m[0m[0m	pochi v0.6.6
[37m2026-04-01 01:11:18.336[39m[0m[0m	[32m[1mDEBUG[22m[39m[0m[0m	[37musr/lib/node_modules/@getpochi/cli/dist/cli.js:509823[39m[0m[0m[1m[37m	loadAgents[39m[22m[0m[0m	Loaded 5 custom agents (5 valid, 0 invalid)
[37m2026-04-01 01:11:18.339[39m[0m[0m	[32m[1mDEBUG[22m[39m[0m[0m	[37musr/lib/node_modules/@getpochi/cli/dist/cli.js:509909[39m[0m[0m[1m[37m	loadSkills[39m[22m[0m[0m	Loaded 2 skills (2 valid, 0 invalid)
[37m2026-04-01 01:11:18.435[39m[0m[0m	[32m[1mDEBUG[22m[39m[0m[0m	[37musr/lib/node_modules/@getpochi/cli/dist/cli.js:526152[39m[0m[0m[1m[37m	MCPHub[39m[22m[0m[0m	MCP servers configuration changed via signal:
[37m2026-04-01 01:11:18.435[39m[0m[0m	[32m[1mDEBUG[22m[39m[0m[0m	[37musr/lib/node_modules/@getpochi/cli/dist/cli.js:526158[39m[0m[0m[1m[37m	MCPHub[39m[22m[0m[0m	Build MCPHub Status
[37m2026-04-01 01:11:19.080[39m[0m[0m	[32m[1mDEBUG[22m[39m[0m[0m	[37musr/lib/node_modules/@getpochi/cli/dist/cli.js:545870[39m[0m[0m[1m[37m	TaskRunner[39m[22m[0m[0m	Starting TaskRunner...
[37m2026-04-01 01:11:19.118[39m[0m[0m	[32m[1mDEBUG[22m[39m[0m[0m	[37musr/lib/node_modules/@getpochi/cli/dist/cli.js:540293[39m[0m[0m[1m[37m	generateTaskTitle[39m[22m[0m[0m	Generating task title, old: null, new: You are a software tester assigned to verify a test case using the agent browser.
[37m2026-04-01 01:11:36.546[39m[0m[0m	[32m[1mDEBUG[22m[39m[0m[0m	[37musr/lib/node_modules/@getpochi/cli/dist/cli.js:540293[39m[0m[0m[1m[37m	generateTaskTitle[39m[22m[0m[0m	Generating task title, old: You are a software tester assigned to verify a test case using the agent browser., new: Verify persistent counter functionality in Wasp Counter application
[37m2026-04-01 01:11:37.587[39m[0m[0m	[32m[1mDEBUG[22m[39m[0m[0m	[37musr/lib/node_modules/@getpochi/cli/dist/cli.js:545870[39m[0m[0m[1m[37m	TaskRunner[39m[22m[0m[0m	Starting TaskRunner...
[37m2026-04-01 01:11:37.617[39m[0m[0m	[32m[1mDEBUG[22m[39m[0m[0m	[37musr/lib/node_modules/@getpochi/cli/dist/cli.js:540293[39m[0m[0m[1m[37m	generateTaskTitle[39m[22m[0m[0m	Generating task title, old: null, new: Perform the following verification steps for the Wasp Counter application:
[37m2026-04-01 01:11:53.837[39m[0m[0m	[32m[1mDEBUG[22m[39m[0m[0m	[37musr/lib/node_modules/@getpochi/cli/dist/cli.js:540293[39m[0m[0m[1m[37m	generateTaskTitle[39m[22m[0m[0m	Generating task title, old: Perform the following verification steps for the Wasp Counter application:, new: Verify Wasp Counter application functionality
[37m2026-04-01 01:12:03.954[39m[0m[0m	[32m[1mDEBUG[22m[39m[0m[0m	[37musr/lib/node_modules/@getpochi/cli/dist/cli.js:545482[39m[0m[0m[1m[37m	newTask[39m[22m[0m[0m	Browser stream webSocket connected.
[37m2026-04-01 01:12:03.983[39m[0m[0m	[32m[1mDEBUG[22m[39m[0m[0m	[37musr/lib/node_modules/@getpochi/cli/dist/cli.js:497856[39m[0m[0m[1m[37m	MjpegToMp4[39m[22m[0m[0m	Saved frame 0: 1775005923.971364
[37m2026-04-01 01:12:08.940[39m[0m[0m	[32m[1mDEBUG[22m[39m[0m[0m	[37musr/lib/node_modules/@getpochi/cli/dist/cli.js:497856[39m[0m[0m[1m[37m	MjpegToMp4[39m[22m[0m[0m	Saved frame 1: 1775005928.934503
[37m2026-04-01 01:12:11.565[39m[0m[0m	[32m[1mDEBUG[22m[39m[0m[0m	[37musr/lib/node_modules/@getpochi/cli/dist/cli.js:497856[39m[0m[0m[1m[37m	MjpegToMp4[39m[22m[0m[0m	Saved frame 2: 1775005931.507248
[37m2026-04-01 01:12:20.869[39m[0m[0m	[32m[1mDEBUG[22m[39m[0m[0m	[37musr/lib/node_modules/@getpochi/cli/dist/cli.js:497856[39m[0m[0m[1m[37m	MjpegToMp4[39m[22m[0m[0m	Saved frame 3: 1775005940.860676
[37m2026-04-01 01:12:20.900[39m[0m[0m	[32m[1mDEBUG[22m[39m[0m[0m	[37musr/lib/node_modules/@getpochi/cli/dist/cli.js:497856[39m[0m[0m[1m[37m	MjpegToMp4[39m[22m[0m[0m	Saved frame 4: 1775005940.896103
[37m2026-04-01 01:12:27.917[39m[0m[0m	[32m[1mDEBUG[22m[39m[0m[0m	[37musr/lib/node_modules/@getpochi/cli/dist/cli.js:497856[39m[0m[0m[1m[37m	MjpegToMp4[39m[22m[0m[0m	Saved frame 5: 1775005947.9128
[37m2026-04-01 01:12:39.052[39m[0m[0m	[32m[1mDEBUG[22m[39m[0m[0m	[37musr/lib/node_modules/@getpochi/cli/dist/cli.js:497856[39m[0m[0m[1m[37m	MjpegToMp4[39m[22m[0m[0m	Saved frame 6: 1775005959.03665
[37m2026-04-01 01:12:39.084[39m[0m[0m	[32m[1mDEBUG[22m[39m[0m[0m	[37musr/lib/node_modules/@getpochi/cli/dist/cli.js:497856[39m[0m[0m[1m[37m	MjpegToMp4[39m[22m[0m[0m	Saved frame 7: 1775005959.078688
[37m2026-04-01 01:12:46.103[39m[0m[0m	[32m[1mDEBUG[22m[39m[0m[0m	[37musr/lib/node_modules/@getpochi/cli/dist/cli.js:497856[39m[0m[0m[1m[37m	MjpegToMp4[39m[22m[0m[0m	Saved frame 8: 1775005966.099769
[37m2026-04-01 01:16:08.515[39m[0m[0m	[32m[1mDEBUG[22m[39m[0m[0m	[37musr/lib/node_modules/@getpochi/cli/dist/cli.js:497856[39m[0m[0m[1m[37m	MjpegToMp4[39m[22m[0m[0m	Saved frame 9: 1775006168.506991
[37m2026-04-01 01:16:08.551[39m[0m[0m	[32m[1mDEBUG[22m[39m[0m[0m	[37musr/lib/node_modules/@getpochi/cli/dist/cli.js:497856[39m[0m[0m[1m[37m	MjpegToMp4[39m[22m[0m[0m	Saved frame 10: 1775006168.54227
[37m2026-04-01 01:16:21.127[39m[0m[0m	[32m[1mDEBUG[22m[39m[0m[0m	[37musr/lib/node_modules/@getpochi/cli/dist/cli.js:497856[39m[0m[0m[1m[37m	MjpegToMp4[39m[22m[0m[0m	Saved frame 11: 1775006181.122953
[37m2026-04-01 01:16:21.170[39m[0m[0m	[32m[1mDEBUG[22m[39m[0m[0m	[37musr/lib/node_modules/@getpochi/cli/dist/cli.js:497856[39m[0m[0m[1m[37m	MjpegToMp4[39m[22m[0m[0m	Saved frame 12: 1775006181.155156
[37m2026-04-01 01:16:28.565[39m[0m[0m	[32m[1mDEBUG[22m[39m[0m[0m	[37musr/lib/node_modules/@getpochi/cli/dist/cli.js:497856[39m[0m[0m[1m[37m	MjpegToMp4[39m[22m[0m[0m	Saved frame 13: 1775006188.545658
[37m2026-04-01 01:16:28.569[39m[0m[0m	[32m[1mDEBUG[22m[39m[0m[0m	[37musr/lib/node_modules/@getpochi/cli/dist/cli.js:497856[39m[0m[0m[1m[37m	MjpegToMp4[39m[22m[0m[0m	Saved frame 14: 1775006188.562139
[37m2026-04-01 01:16:35.434[39m[0m[0m	[32m[1mDEBUG[22m[39m[0m[0m	[37musr/lib/node_modules/@getpochi/cli/dist/cli.js:497856[39m[0m[0m[1m[37m	MjpegToMp4[39m[22m[0m[0m	Saved frame 15: 1775006195.429905
[37m2026-04-01 01:16:35.468[39m[0m[0m	[32m[1mDEBUG[22m[39m[0m[0m	[37musr/lib/node_modules/@getpochi/cli/dist/cli.js:497856[39m[0m[0m[1m[37m	MjpegToMp4[39m[22m[0m[0m	Saved frame 16: 1775006195.459096
[37m2026-04-01 01:16:37.860[39m[0m[0m	[32m[1mDEBUG[22m[39m[0m[0m	[37musr/lib/node_modules/@getpochi/cli/dist/cli.js:497856[39m[0m[0m[1m[37m	MjpegToMp4[39m[22m[0m[0m	Saved frame 17: 1775006197.777965
[37m2026-04-01 01:17:00.988[39m[0m[0m	[32m[1mDEBUG[22m[39m[0m[0m	[37musr/lib/node_modules/@getpochi/cli/dist/cli.js:497906[39m[0m[0m[1m[37m	MjpegToMp4[39m[22m[0m[0m	[ffmpeg] start: ffmpeg -safe 0 -f concat -i /tmp/pochi-mjpeg2mp4-BnGv3s/frames.ffconcat -y -vcodec libx264 -filter:v scale=854:480:force_original_aspect_ratio=decrease,pad=854:480:(ow-iw)/2:(oh-ih)/2:color=black -pix_fmt yuv420p -movflags +faststart -preset veryfast -crf 23 -an -f mp4 /tmp/pochi-browser-agent-video-34db4d24-c1de-4a67-b7b8-0057ed1da9d6.mp4
[37m2026-04-01 01:17:01.006[39m[0m[0m	[32m[1mDEBUG[22m[39m[0m[0m	[37musr/lib/node_modules/@getpochi/cli/dist/cli.js:497906[39m[0m[0m[1m[37m	MjpegToMp4[39m[22m[0m[0m	[ffmpeg] stderr: ffmpeg version 6.1.1-3ubuntu5 Copyright (c) 2000-2023 the FFmpeg developers
[37m2026-04-01 01:17:01.006[39m[0m[0m	[32m[1mDEBUG[22m[39m[0m[0m	[37musr/lib/node_modules/@getpochi/cli/dist/cli.js:497906[39m[0m[0m[1m[37m	MjpegToMp4[39m[22m[0m[0m	[ffmpeg] stderr:   built with gcc 13 (Ubuntu 13.2.0-23ubuntu3)
[37m2026-04-01 01:17:01.006[39m[0m[0m	[32m[1mDEBUG[22m[39m[0m[0m	[37musr/lib/node_modules/@getpochi/cli/dist/cli.js:497906[39m[0m[0m[1m[37m	MjpegToMp4[39m[22m[0m[0m	[ffmpeg] stderr:   configuration: --prefix=/usr --extra-version=3ubuntu5 --toolchain=hardened --libdir=/usr/lib/x86_64-linux-gnu --incdir=/usr/include/x86_64-linux-gnu --arch=amd64 --enable-gpl --disable-stripping --disable-omx --enable-gnutls --enable-libaom --enable-libass --enable-libbs2b --enable-libcaca --enable-libcdio --enable-libcodec2 --enable-libdav1d --enable-libflite --enable-libfontconfig --enable-libfreetype --enable-libfribidi --enable-libglslang --enable-libgme --enable-libgsm --enable-libharfbuzz --enable-libmp3lame --enable-libmysofa --enable-libopenjpeg --enable-libopenmpt --enable-libopus --enable-librubberband --enable-libshine --enable-libsnappy --enable-libsoxr --enable-libspeex --enable-libtheora --enable-libtwolame --enable-libvidstab --enable-libvorbis --enable-libvpx --enable-libwebp --enable-libx265 --enable-libxml2 --enable-libxvid --enable-libzimg --enable-openal --enable-opencl --enable-opengl --disable-sndio --enable-libvpl --disable-libmfx --enable-libdc1394 --enable-libdrm --enable-libiec61883 --enable-chromaprint --enable-frei0r --enable-ladspa --enable-libbluray --enable-libjack --enable-libpulse --enable-librabbitmq --enable-librist --enable-libsrt --enable-libssh --enable-libsvtav1 --enable-libx264 --enable-libzmq --enable-libzvbi --enable-lv2 --enable-sdl2 --enable-libplacebo --enable-librav1e --enable-pocketsphinx --enable-librsvg --enable-libjxl --enable-shared
[37m2026-04-01 01:17:01.006[39m[0m[0m	[32m[1mDEBUG[22m[39m[0m[0m	[37musr/lib/node_modules/@getpochi/cli/dist/cli.js:497906[39m[0m[0m[1m[37m	MjpegToMp4[39m[22m[0m[0m	[ffmpeg] stderr:   libavutil      58. 29.100 / 58. 29.100
[37m2026-04-01 01:17:01.006[39m[0m[0m	[32m[1mDEBUG[22m[39m[0m[0m	[37musr/lib/node_modules/@getpochi/cli/dist/cli.js:497906[39m[0m[0m[1m[37m	MjpegToMp4[39m[22m[0m[0m	[ffmpeg] stderr:   libavcodec     60. 31.102 / 60. 31.102
[37m2026-04-01 01:17:01.006[39m[0m[0m	[32m[1mDEBUG[22m[39m[0m[0m	[37musr/lib/node_modules/@getpochi/cli/dist/cli.js:497906[39m[0m[0m[1m[37m	MjpegToMp4[39m[22m[0m[0m	[ffmpeg] stderr:   libavformat    60. 16.100 / 60. 16.100
[37m2026-04-01 01:17:01.006[39m[0m[0m	[32m[1mDEBUG[22m[39m[0m[0m	[37musr/lib/node_modules/@getpochi/cli/dist/cli.js:497906[39m[0m[0m[1m[37m	MjpegToMp4[39m[22m[0m[0m	[ffmpeg] stderr:   libavdevice    60.  3.100 / 60.  3.100
[37m2026-04-01 01:17:01.006[39m[0m[0m	[32m[1mDEBUG[22m[39m[0m[0m	[37musr/lib/node_modules/@getpochi/cli/dist/cli.js:497906[39m[0m[0m[1m[37m	MjpegToMp4[39m[22m[0m[0m	[ffmpeg] stderr:   libavfilter     9. 12.100 /  9. 12.100
[37m2026-04-01 01:17:01.006[39m[0m[0m	[32m[1mDEBUG[22m[39m[0m[0m	[37musr/lib/node_modules/@getpochi/cli/dist/cli.js:497906[39m[0m[0m[1m[37m	MjpegToMp4[39m[22m[0m[0m	[ffmpeg] stderr:   libswscale      7.  5.100 /  7.  5.100
[37m2026-04-01 01:17:01.006[39m[0m[0m	[32m[1mDEBUG[22m[39m[0m[0m	[37musr/lib/node_modules/@getpochi/cli/dist/cli.js:497906[39m[0m[0m[1m[37m	MjpegToMp4[39m[22m[0m[0m	[ffmpeg] stderr:   libswresample   4. 12.100 /  4. 12.100
[37m2026-04-01 01:17:01.006[39m[0m[0m	[32m[1mDEBUG[22m[39m[0m[0m	[37musr/lib/node_modules/@getpochi/cli/dist/cli.js:497906[39m[0m[0m[1m[37m	MjpegToMp4[39m[22m[0m[0m	[ffmpeg] stderr:   libpostproc    57.  3.100 / 57.  3.100
[37m2026-04-01 01:17:01.007[39m[0m[0m	[32m[1mDEBUG[22m[39m[0m[0m	[37musr/lib/node_modules/@getpochi/cli/dist/cli.js:497906[39m[0m[0m[1m[37m	MjpegToMp4[39m[22m[0m[0m	[ffmpeg] stderr: Input #0, concat, from '/tmp/pochi-mjpeg2mp4-BnGv3s/frames.ffconcat':
[37m2026-04-01 01:17:01.007[39m[0m[0m	[32m[1mDEBUG[22m[39m[0m[0m	[37musr/lib/node_modules/@getpochi/cli/dist/cli.js:497906[39m[0m[0m[1m[37m	MjpegToMp4[39m[22m[0m[0m	[ffmpeg] stderr:   Duration: N/A, start: 0.000000, bitrate: N/A
[37m2026-04-01 01:17:01.007[39m[0m[0m	[32m[1mDEBUG[22m[39m[0m[0m	[37musr/lib/node_modules/@getpochi/cli/dist/cli.js:497906[39m[0m[0m[1m[37m	MjpegToMp4[39m[22m[0m[0m	[ffmpeg] stderr:   Stream #0:0: Video: mjpeg (Baseline), yuvj420p(pc, bt470bg/unknown/unknown), 1280x720 [SAR 1:1 DAR 16:9], 25 fps, 25 tbr, 25 tbn
[37m2026-04-01 01:17:01.007[39m[0m[0m	[32m[1mDEBUG[22m[39m[0m[0m	[37musr/lib/node_modules/@getpochi/cli/dist/cli.js:497906[39m[0m[0m[1m[37m	MjpegToMp4[39m[22m[0m[0m	[ffmpeg] stderr: Stream mapping:
[37m2026-04-01 01:17:01.007[39m[0m[0m	[32m[1mDEBUG[22m[39m[0m[0m	[37musr/lib/node_modules/@getpochi/cli/dist/cli.js:497906[39m[0m[0m[1m[37m	MjpegToMp4[39m[22m[0m[0m	[ffmpeg] stderr:   Stream #0:0 -> #0:0 (mjpeg (native) -> h264 (libx264))
[37m2026-04-01 01:17:01.007[39m[0m[0m	[32m[1mDEBUG[22m[39m[0m[0m	[37musr/lib/node_modules/@getpochi/cli/dist/cli.js:497906[39m[0m[0m[1m[37m	MjpegToMp4[39m[22m[0m[0m	[ffmpeg] stderr: Press [q] to stop, [?] for help
[37m2026-04-01 01:17:01.009[39m[0m[0m	[32m[1mDEBUG[22m[39m[0m[0m	[37musr/lib/node_modules/@getpochi/cli/dist/cli.js:497906[39m[0m[0m[1m[37m	MjpegToMp4[39m[22m[0m[0m	[ffmpeg] stderr: [swscaler @ 0x564e09d15000] deprecated pixel format used, make sure you did set range correctly
[37m2026-04-01 01:17:01.013[39m[0m[0m	[32m[1mDEBUG[22m[39m[0m[0m	[37musr/lib/node_modules/@getpochi/cli/dist/cli.js:497906[39m[0m[0m[1m[37m	MjpegToMp4[39m[22m[0m[0m	[ffmpeg] stderr: [swscaler @ 0x564e09d25440] deprecated pixel format used, make sure you did set range correctly
[37m2026-04-01 01:17:01.016[39m[0m[0m	[32m[1mDEBUG[22m[39m[0m[0m	[37musr/lib/node_modules/@getpochi/cli/dist/cli.js:497906[39m[0m[0m[1m[37m	MjpegToMp4[39m[22m[0m[0m	[ffmpeg] stderr: [swscaler @ 0x564e09d23e40] deprecated pixel format used, make sure you did set range correctly
[37m2026-04-01 01:17:01.022[39m[0m[0m	[32m[1mDEBUG[22m[39m[0m[0m	[37musr/lib/node_modules/@getpochi/cli/dist/cli.js:497906[39m[0m[0m[1m[37m	MjpegToMp4[39m[22m[0m[0m	[ffmpeg] stderr:     Last message repeated 1 times
[37m2026-04-01 01:17:01.022[39m[0m[0m	[32m[1mDEBUG[22m[39m[0m[0m	[37musr/lib/node_modules/@getpochi/cli/dist/cli.js:497906[39m[0m[0m[1m[37m	MjpegToMp4[39m[22m[0m[0m	[ffmpeg] stderr: [libx264 @ 0x564e09cfbc80] using SAR=2560/2559
[37m2026-04-01 01:17:01.022[39m[0m[0m	[32m[1mDEBUG[22m[39m[0m[0m	[37musr/lib/node_modules/@getpochi/cli/dist/cli.js:497906[39m[0m[0m[1m[37m	MjpegToMp4[39m[22m[0m[0m	[ffmpeg] stderr: [libx264 @ 0x564e09cfbc80] using cpu capabilities: MMX2 SSE2Fast SSSE3 SSE4.2 AVX FMA3 BMI2 AVX2
[37m2026-04-01 01:17:01.023[39m[0m[0m	[32m[1mDEBUG[22m[39m[0m[0m	[37musr/lib/node_modules/@getpochi/cli/dist/cli.js:497906[39m[0m[0m[1m[37m	MjpegToMp4[39m[22m[0m[0m	[ffmpeg] stderr: [libx264 @ 0x564e09cfbc80] profile High, level 3.0, 4:2:0, 8-bit
[37m2026-04-01 01:17:01.023[39m[0m[0m	[32m[1mDEBUG[22m[39m[0m[0m	[37musr/lib/node_modules/@getpochi/cli/dist/cli.js:497906[39m[0m[0m[1m[37m	MjpegToMp4[39m[22m[0m[0m	[ffmpeg] stderr: [libx264 @ 0x564e09cfbc80] 264 - core 164 r3108 31e19f9 - H.264/MPEG-4 AVC codec - Copyleft 2003-2023 - http://www.videolan.org/x264.html - options: cabac=1 ref=1 deblock=1:0:0 analyse=0x3:0x113 me=hex subme=2 psy=1 psy_rd=1.00:0.00 mixed_ref=0 me_range=16 chroma_me=1 trellis=0 8x8dct=1 cqm=0 deadzone=21,11 fast_pskip=1 chroma_qp_offset=0 threads=15 lookahead_threads=3 sliced_threads=0 nr=0 decimate=1 interlaced=0 bluray_compat=0 constrained_intra=0 bframes=3 b_pyramid=2 b_adapt=1 b_bias=0 direct=1 weightb=1 open_gop=0 weightp=1 keyint=250 keyint_min=25 scenecut=40 intra_refresh=0 rc_lookahead=10 rc=crf mbtree=1 crf=23.0 qcomp=0.60 qpmin=0 qpmax=69 qpstep=4 ip_ratio=1.40 aq=1:1.00
[37m2026-04-01 01:17:01.023[39m[0m[0m	[32m[1mDEBUG[22m[39m[0m[0m	[37musr/lib/node_modules/@getpochi/cli/dist/cli.js:497906[39m[0m[0m[1m[37m	MjpegToMp4[39m[22m[0m[0m	[ffmpeg] stderr: Output #0, mp4, to '/tmp/pochi-browser-agent-video-34db4d24-c1de-4a67-b7b8-0057ed1da9d6.mp4':
[37m2026-04-01 01:17:01.023[39m[0m[0m	[32m[1mDEBUG[22m[39m[0m[0m	[37musr/lib/node_modules/@getpochi/cli/dist/cli.js:497906[39m[0m[0m[1m[37m	MjpegToMp4[39m[22m[0m[0m	[ffmpeg] stderr:   Metadata:
[37m2026-04-01 01:17:01.023[39m[0m[0m	[32m[1mDEBUG[22m[39m[0m[0m	[37musr/lib/node_modules/@getpochi/cli/dist/cli.js:497906[39m[0m[0m[1m[37m	MjpegToMp4[39m[22m[0m[0m	[ffmpeg] stderr:     encoder         : Lavf60.16.100
[37m2026-04-01 01:17:01.023[39m[0m[0m	[32m[1mDEBUG[22m[39m[0m[0m	[37musr/lib/node_modules/@getpochi/cli/dist/cli.js:497906[39m[0m[0m[1m[37m	MjpegToMp4[39m[22m[0m[0m	[ffmpeg] stderr:   Stream #0:0: Video: h264 (avc1 / 0x31637661), yuv420p(tv, bt470bg/unknown/unknown, progressive), 854x480 [SAR 2560:2559 DAR 13664:7677], q=2-31, 25 fps, 12800 tbn
[37m2026-04-01 01:17:01.023[39m[0m[0m	[32m[1mDEBUG[22m[39m[0m[0m	[37musr/lib/node_modules/@getpochi/cli/dist/cli.js:497906[39m[0m[0m[1m[37m	MjpegToMp4[39m[22m[0m[0m	[ffmpeg] stderr:     Metadata:
[37m2026-04-01 01:17:01.023[39m[0m[0m	[32m[1mDEBUG[22m[39m[0m[0m	[37musr/lib/node_modules/@getpochi/cli/dist/cli.js:497906[39m[0m[0m[1m[37m	MjpegToMp4[39m[22m[0m[0m	[ffmpeg] stderr:       encoder         : Lavc60.31.102 libx264
[37m2026-04-01 01:17:01.023[39m[0m[0m	[32m[1mDEBUG[22m[39m[0m[0m	[37musr/lib/node_modules/@getpochi/cli/dist/cli.js:497906[39m[0m[0m[1m[37m	MjpegToMp4[39m[22m[0m[0m	[ffmpeg] stderr:     Side data:
[37m2026-04-01 01:17:01.023[39m[0m[0m	[32m[1mDEBUG[22m[39m[0m[0m	[37musr/lib/node_modules/@getpochi/cli/dist/cli.js:497906[39m[0m[0m[1m[37m	MjpegToMp4[39m[22m[0m[0m	[ffmpeg] stderr:       cpb: bitrate max/min/avg: 0/0/0 buffer size: 0 vbv_delay: N/A
[37m2026-04-01 01:17:01.024[39m[0m[0m	[32m[1mDEBUG[22m[39m[0m[0m	[37musr/lib/node_modules/@getpochi/cli/dist/cli.js:497906[39m[0m[0m[1m[37m	MjpegToMp4[39m[22m[0m[0m	[ffmpeg] stderr: frame=    0 fps=0.0 q=0.0 size=       0kB time=N/A bitrate=N/A speed=N/A    
[37m2026-04-01 01:17:01.024[39m[0m[0m	[32m[1mDEBUG[22m[39m[0m[0m	[37musr/lib/node_modules/@getpochi/cli/dist/cli.js:497906[39m[0m[0m[1m[37m	MjpegToMp4[39m[22m[0m[0m	[ffmpeg] stderr: [mjpeg @ 0x564e09cf93c0] EOI missing, emulating
[37m2026-04-01 01:17:01.686[39m[0m[0m	[32m[1mDEBUG[22m[39m[0m[0m	[37musr/lib/node_modules/@getpochi/cli/dist/cli.js:497906[39m[0m[0m[1m[37m	MjpegToMp4[39m[22m[0m[0m	[ffmpeg] stderr:     Last message repeated 2 times
[37m2026-04-01 01:17:01.686[39m[0m[0m	[32m[1mDEBUG[22m[39m[0m[0m	[37musr/lib/node_modules/@getpochi/cli/dist/cli.js:497906[39m[0m[0m[1m[37m	MjpegToMp4[39m[22m[0m[0m	[ffmpeg] stderr: frame=  821 fps=0.0 q=28.0 size=       0kB time=00:00:32.76 bitrate=   0.0kbits/s dup=843 drop=0 speed=48.4x    
[37m2026-04-01 01:17:01.687[39m[0m[0m	[32m[1mDEBUG[22m[39m[0m[0m	[37musr/lib/node_modules/@getpochi/cli/dist/cli.js:497906[39m[0m[0m[1m[37m	MjpegToMp4[39m[22m[0m[0m	[ffmpeg] stderr: [vost#0:0/libx264 @ 0x564e09cfb9c0] More than 1000 frames duplicated
[37m2026-04-01 01:17:02.271[39m[0m[0m	[32m[1mDEBUG[22m[39m[0m[0m	[37musr/lib/node_modules/@getpochi/cli/dist/cli.js:497906[39m[0m[0m[1m[37m	MjpegToMp4[39m[22m[0m[0m	[ffmpeg] stderr: frame= 1498 fps=1190 q=28.0 size=       0kB time=00:00:59.84 bitrate=   0.0kbits/s dup=1515 drop=0 speed=47.5x    
[37m2026-04-01 01:17:02.272[39m[0m[0m	[32m[1mDEBUG[22m[39m[0m[0m	[37musr/lib/node_modules/@getpochi/cli/dist/cli.js:497906[39m[0m[0m[1m[37m	MjpegToMp4[39m[22m[0m[0m	[ffmpeg] stderr: [mjpeg @ 0x564e09cf93c0] EOI missing, emulating
[37m2026-04-01 01:17:02.801[39m[0m[0m	[32m[1mDEBUG[22m[39m[0m[0m	[37musr/lib/node_modules/@getpochi/cli/dist/cli.js:497906[39m[0m[0m[1m[37m	MjpegToMp4[39m[22m[0m[0m	[ffmpeg] stderr: frame= 1938 fps=1094 q=28.0 size=       0kB time=00:01:17.44 bitrate=   0.0kbits/s dup=1949 drop=0 speed=43.7x    
[37m2026-04-01 01:17:02.878[39m[0m[0m	[32m[1mDEBUG[22m[39m[0m[0m	[37musr/lib/node_modules/@getpochi/cli/dist/cli.js:497906[39m[0m[0m[1m[37m	MjpegToMp4[39m[22m[0m[0m	[ffmpeg] stderr: [mp4 @ 0x564e09d01700] Starting second pass: moving the moov atom to the beginning of the file
[37m2026-04-01 01:17:02.879[39m[0m[0m	[32m[1mDEBUG[22m[39m[0m[0m	[37musr/lib/node_modules/@getpochi/cli/dist/cli.js:497906[39m[0m[0m[1m[37m	MjpegToMp4[39m[22m[0m[0m	[ffmpeg] stderr: [out#0/mp4 @ 0x564e09cfb140] video:72kB audio:0kB subtitle:0kB other streams:0kB global headers:0kB muxing overhead: 33.486239%
[37m2026-04-01 01:17:02.879[39m[0m[0m	[32m[1mDEBUG[22m[39m[0m[0m	[37musr/lib/node_modules/@getpochi/cli/dist/cli.js:497906[39m[0m[0m[1m[37m	MjpegToMp4[39m[22m[0m[0m	[ffmpeg] stderr: frame= 1991 fps=1064 q=-1.0 Lsize=      96kB time=00:01:19.52 bitrate=   9.9kbits/s dup=1972 drop=0 speed=42.5x    
[37m2026-04-01 01:17:02.880[39m[0m[0m	[32m[1mDEBUG[22m[39m[0m[0m	[37musr/lib/node_modules/@getpochi/cli/dist/cli.js:497906[39m[0m[0m[1m[37m	MjpegToMp4[39m[22m[0m[0m	[ffmpeg] stderr: [libx264 @ 0x564e09cfbc80] frame I:10    Avg QP: 7.69  size:  2116
[37m2026-04-01 01:17:02.881[39m[0m[0m	[32m[1mDEBUG[22m[39m[0m[0m	[37musr/lib/node_modules/@getpochi/cli/dist/cli.js:497906[39m[0m[0m[1m[37m	MjpegToMp4[39m[22m[0m[0m	[ffmpeg] stderr: [libx264 @ 0x564e09cfbc80] frame P:502   Avg QP:20.93  size:    36
[37m2026-04-01 01:17:02.881[39m[0m[0m	[32m[1mDEBUG[22m[39m[0m[0m	[37musr/lib/node_modules/@getpochi/cli/dist/cli.js:497906[39m[0m[0m[1m[37m	MjpegToMp4[39m[22m[0m[0m	[ffmpeg] stderr: [libx264 @ 0x564e09cfbc80] frame B:1479  Avg QP:25.23  size:    23
[37m2026-04-01 01:17:02.881[39m[0m[0m	[32m[1mDEBUG[22m[39m[0m[0m	[37musr/lib/node_modules/@getpochi/cli/dist/cli.js:497906[39m[0m[0m[1m[37m	MjpegToMp4[39m[22m[0m[0m	[ffmpeg] stderr: [libx264 @ 0x564e09cfbc80] consecutive B-frames:  1.0%  0.0%  0.0% 99.0%
[37m2026-04-01 01:17:02.881[39m[0m[0m	[32m[1mDEBUG[22m[39m[0m[0m	[37musr/lib/node_modules/@getpochi/cli/dist/cli.js:497906[39m[0m[0m[1m[37m	MjpegToMp4[39m[22m[0m[0m	[ffmpeg] stderr: [libx264 @ 0x564e09cfbc80] mb I  I16..4: 97.9%  0.1%  2.0%
[37m2026-04-01 01:17:02.881[39m[0m[0m	[32m[1mDEBUG[22m[39m[0m[0m	[37musr/lib/node_modules/@getpochi/cli/dist/cli.js:497906[39m[0m[0m[1m[37m	MjpegToMp4[39m[22m[0m[0m	[ffmpeg] stderr: [libx264 @ 0x564e09cfbc80] mb P  I16..4:  0.1%  0.0%  0.0%  P16..4:  0.0%  0.0%  0.0%  0.0%  0.0%    skip:99.9%
[37m2026-04-01 01:17:02.881[39m[0m[0m	[32m[1mDEBUG[22m[39m[0m[0m	[37musr/lib/node_modules/@getpochi/cli/dist/cli.js:497906[39m[0m[0m[1m[37m	MjpegToMp4[39m[22m[0m[0m	[ffmpeg] stderr: [libx264 @ 0x564e09cfbc80] mb B  I16..4:  0.0%  0.0%  0.0%  B16..8:  0.0%  0.0%  0.0%  direct: 0.0%  skip:100.0%  L0:42.7% L1:57.3% BI: 0.0%
[37m2026-04-01 01:17:02.881[39m[0m[0m	[32m[1mDEBUG[22m[39m[0m[0m	[37musr/lib/node_modules/@getpochi/cli/dist/cli.js:497906[39m[0m[0m[1m[37m	MjpegToMp4[39m[22m[0m[0m	[ffmpeg] stderr: [libx264 @ 0x564e09cfbc80] 8x8 transform intra:0.1% inter:41.1%
[37m2026-04-01 01:17:02.881[39m[0m[0m	[32m[1mDEBUG[22m[39m[0m[0m	[37musr/lib/node_modules/@getpochi/cli/dist/cli.js:497906[39m[0m[0m[1m[37m	MjpegToMp4[39m[22m[0m[0m	[ffmpeg] stderr: [libx264 @ 0x564e09cfbc80] coded y,uvDC,uvAC intra: 1.7% 2.0% 1.9% inter: 0.0% 0.0% 0.0%
[37m2026-04-01 01:17:02.881[39m[0m[0m	[32m[1mDEBUG[22m[39m[0m[0m	[37musr/lib/node_modules/@getpochi/cli/dist/cli.js:497906[39m[0m[0m[1m[37m	MjpegToMp4[39m[22m[0m[0m	[ffmpeg] stderr: [libx264 @ 0x564e09cfbc80] i16 v,h,dc,p: 96%  1%  3%  0%
[37m2026-04-01 01:17:02.882[39m[0m[0m	[32m[1mDEBUG[22m[39m[0m[0m	[37musr/lib/node_modules/@getpochi/cli/dist/cli.js:497906[39m[0m[0m[1m[37m	MjpegToMp4[39m[22m[0m[0m	[ffmpeg] stderr: [libx264 @ 0x564e09cfbc80] i8 v,h,dc,ddl,ddr,vr,hd,vl,hu:  9% 34% 43%  0%  0%  0%  9%  0%  5%
[37m2026-04-01 01:17:02.882[39m[0m[0m	[32m[1mDEBUG[22m[39m[0m[0m	[37musr/lib/node_modules/@getpochi/cli/dist/cli.js:497906[39m[0m[0m[1m[37m	MjpegToMp4[39m[22m[0m[0m	[ffmpeg] stderr: [libx264 @ 0x564e09cfbc80] i4 v,h,dc,ddl,ddr,vr,hd,vl,hu: 27% 29% 24%  2%  3%  3%  5%  2%  5%
[37m2026-04-01 01:17:02.882[39m[0m[0m	[32m[1mDEBUG[22m[39m[0m[0m	[37musr/lib/node_modules/@getpochi/cli/dist/cli.js:497906[39m[0m[0m[1m[37m	MjpegToMp4[39m[22m[0m[0m	[ffmpeg] stderr: [libx264 @ 0x564e09cfbc80] i8c dc,h,v,p: 99%  0%  1%  0%
[37m2026-04-01 01:17:02.882[39m[0m[0m	[32m[1mDEBUG[22m[39m[0m[0m	[37musr/lib/node_modules/@getpochi/cli/dist/cli.js:497906[39m[0m[0m[1m[37m	MjpegToMp4[39m[22m[0m[0m	[ffmpeg] stderr: [libx264 @ 0x564e09cfbc80] Weighted P-Frames: Y:0.0% UV:0.0%
[37m2026-04-01 01:17:02.882[39m[0m[0m	[32m[1mDEBUG[22m[39m[0m[0m	[37musr/lib/node_modules/@getpochi/cli/dist/cli.js:497906[39m[0m[0m[1m[37m	MjpegToMp4[39m[22m[0m[0m	[ffmpeg] stderr: [libx264 @ 0x564e09cfbc80] kb/s:7.35
[37m2026-04-01 01:17:02.890[39m[0m[0m	[32m[1mDEBUG[22m[39m[0m[0m	[37musr/lib/node_modules/@getpochi/cli/dist/cli.js:497906[39m[0m[0m[1m[37m	MjpegToMp4[39m[22m[0m[0m	[ffmpeg] stderr: 
[37m2026-04-01 01:17:02.891[39m[0m[0m	[32m[1mDEBUG[22m[39m[0m[0m	[37musr/lib/node_modules/@getpochi/cli/dist/cli.js:497910[39m[0m[0m[1m[37m	MjpegToMp4[39m[22m[0m[0m	[ffmpeg] end
[37m2026-04-01 01:17:15.856[39m[0m[0m	[32m[1mDEBUG[22m[39m[0m[0m	[37musr/lib/node_modules/@getpochi/cli/dist/cli.js:545870[39m[0m[0m[1m[37m	TaskRunner[39m[22m[0m[0m	Starting TaskRunner...
[37m2026-04-01 01:17:15.886[39m[0m[0m	[32m[1mDEBUG[22m[39m[0m[0m	[37musr/lib/node_modules/@getpochi/cli/dist/cli.js:540293[39m[0m[0m[1m[37m	generateTaskTitle[39m[22m[0m[0m	Generating task title, old: null, new: Navigate to http://localhost:3000.
[37m2026-04-01 01:17:33.417[39m[0m[0m	[32m[1mDEBUG[22m[39m[0m[0m	[37musr/lib/node_modules/@getpochi/cli/dist/cli.js:540293[39m[0m[0m[1m[37m	generateTaskTitle[39m[22m[0m[0m	Generating task title, old: Navigate to http://localhost:3000., new: Verify counter functionality on localhost 3000
[37m2026-04-01 01:17:37.234[39m[0m[0m	[32m[1mDEBUG[22m[39m[0m[0m	[37musr/lib/node_modules/@getpochi/cli/dist/cli.js:545482[39m[0m[0m[1m[37m	newTask[39m[22m[0m[0m	Browser stream webSocket connected.
[37m2026-04-01 01:17:37.275[39m[0m[0m	[32m[1mDEBUG[22m[39m[0m[0m	[37musr/lib/node_modules/@getpochi/cli/dist/cli.js:497856[39m[0m[0m[1m[37m	MjpegToMp4[39m[22m[0m[0m	Saved frame 0: 1775006257.245631
[37m2026-04-01 01:17:49.828[39m[0m[0m	[32m[1mDEBUG[22m[39m[0m[0m	[37musr/lib/node_modules/@getpochi/cli/dist/cli.js:497856[39m[0m[0m[1m[37m	MjpegToMp4[39m[22m[0m[0m	Saved frame 1: 1775006269.814146
[37m2026-04-01 01:17:49.879[39m[0m[0m	[32m[1mDEBUG[22m[39m[0m[0m	[37musr/lib/node_modules/@getpochi/cli/dist/cli.js:497856[39m[0m[0m[1m[37m	MjpegToMp4[39m[22m[0m[0m	Saved frame 2: 1775006269.860204
[37m2026-04-01 01:17:55.186[39m[0m[0m	[32m[1mDEBUG[22m[39m[0m[0m	[37musr/lib/node_modules/@getpochi/cli/dist/cli.js:497856[39m[0m[0m[1m[37m	MjpegToMp4[39m[22m[0m[0m	Saved frame 3: 1775006275.176971
[37m2026-04-01 01:17:55.193[39m[0m[0m	[32m[1mDEBUG[22m[39m[0m[0m	[37musr/lib/node_modules/@getpochi/cli/dist/cli.js:497856[39m[0m[0m[1m[37m	MjpegToMp4[39m[22m[0m[0m	Saved frame 4: 1775006275.187399
[37m2026-04-01 01:18:00.595[39m[0m[0m	[32m[1mDEBUG[22m[39m[0m[0m	[37musr/lib/node_modules/@getpochi/cli/dist/cli.js:497856[39m[0m[0m[1m[37m	MjpegToMp4[39m[22m[0m[0m	Saved frame 5: 1775006280.58843
[37m2026-04-01 01:18:00.625[39m[0m[0m	[32m[1mDEBUG[22m[39m[0m[0m	[37musr/lib/node_modules/@getpochi/cli/dist/cli.js:497856[39m[0m[0m[1m[37m	MjpegToMp4[39m[22m[0m[0m	Saved frame 6: 1775006280.621252
[37m2026-04-01 01:18:00.637[39m[0m[0m	[32m[1mDEBUG[22m[39m[0m[0m	[37musr/lib/node_modules/@getpochi/cli/dist/cli.js:497856[39m[0m[0m[1m[37m	MjpegToMp4[39m[22m[0m[0m	Saved frame 7: 1775006280.632569
[37m2026-04-01 01:18:16.385[39m[0m[0m	[32m[1mDEBUG[22m[39m[0m[0m	[37musr/lib/node_modules/@getpochi/cli/dist/cli.js:497906[39m[0m[0m[1m[37m	MjpegToMp4[39m[22m[0m[0m	[ffmpeg] start: ffmpeg -safe 0 -f concat -i /tmp/pochi-mjpeg2mp4-GVEMOs/frames.ffconcat -y -vcodec libx264 -filter:v scale=854:480:force_original_aspect_ratio=decrease,pad=854:480:(ow-iw)/2:(oh-ih)/2:color=black -pix_fmt yuv420p -movflags +faststart -preset veryfast -crf 23 -an -f mp4 /tmp/pochi-browser-agent-video-926bea5d-bb48-4a0b-9c6d-048e036f8dd1.mp4
[37m2026-04-01 01:18:16.412[39m[0m[0m	[32m[1mDEBUG[22m[39m[0m[0m	[37musr/lib/node_modules/@getpochi/cli/dist/cli.js:497906[39m[0m[0m[1m[37m	MjpegToMp4[39m[22m[0m[0m	[ffmpeg] stderr: ffmpeg version 6.1.1-3ubuntu5 Copyright (c) 2000-2023 the FFmpeg developers
[37m2026-04-01 01:18:16.413[39m[0m[0m	[32m[1mDEBUG[22m[39m[0m[0m	[37musr/lib/node_modules/@getpochi/cli/dist/cli.js:497906[39m[0m[0m[1m[37m	MjpegToMp4[39m[22m[0m[0m	[ffmpeg] stderr:   built with gcc 13 (Ubuntu 13.2.0-23ubuntu3)
[37m2026-04-01 01:18:16.413[39m[0m[0m	[32m[1mDEBUG[22m[39m[0m[0m	[37musr/lib/node_modules/@getpochi/cli/dist/cli.js:497906[39m[0m[0m[1m[37m	MjpegToMp4[39m[22m[0m[0m	[ffmpeg] stderr:   configuration: --prefix=/usr --extra-version=3ubuntu5 --toolchain=hardened --libdir=/usr/lib/x86_64-linux-gnu --incdir=/usr/include/x86_64-linux-gnu --arch=amd64 --enable-gpl --disable-stripping --disable-omx --enable-gnutls --enable-libaom --enable-libass --enable-libbs2b --enable-libcaca --enable-libcdio --enable-libcodec2 --enable-libdav1d --enable-libflite --enable-libfontconfig --enable-libfreetype --enable-libfribidi --enable-libglslang --enable-libgme --enable-libgsm --enable-libharfbuzz --enable-libmp3lame --enable-libmysofa --enable-libopenjpeg --enable-libopenmpt --enable-libopus --enable-librubberband --enable-libshine --enable-libsnappy --enable-libsoxr --enable-libspeex --enable-libtheora --enable-libtwolame --enable-libvidstab --enable-libvorbis --enable-libvpx --enable-libwebp --enable-libx265 --enable-libxml2 --enable-libxvid --enable-libzimg --enable-openal --enable-opencl --enable-opengl --disable-sndio --enable-libvpl --disable-libmfx --enable-libdc1394 --enable-libdrm --enable-libiec61883 --enable-chromaprint --enable-frei0r --enable-ladspa --enable-libbluray --enable-libjack --enable-libpulse --enable-librabbitmq --enable-librist --enable-libsrt --enable-libssh --enable-libsvtav1 --enable-libx264 --enable-libzmq --enable-libzvbi --enable-lv2 --enable-sdl2 --enable-libplacebo --enable-librav1e --enable-pocketsphinx --enable-librsvg --enable-libjxl --enable-shared
[37m2026-04-01 01:18:16.413[39m[0m[0m	[32m[1mDEBUG[22m[39m[0m[0m	[37musr/lib/node_modules/@getpochi/cli/dist/cli.js:497906[39m[0m[0m[1m[37m	MjpegToMp4[39m[22m[0m[0m	[ffmpeg] stderr:   libavutil      58. 29.100 / 58. 29.100
[37m2026-04-01 01:18:16.413[39m[0m[0m	[32m[1mDEBUG[22m[39m[0m[0m	[37musr/lib/node_modules/@getpochi/cli/dist/cli.js:497906[39m[0m[0m[1m[37m	MjpegToMp4[39m[22m[0m[0m	[ffmpeg] stderr:   libavcodec     60. 31.102 / 60. 31.102
[37m2026-04-01 01:18:16.413[39m[0m[0m	[32m[1mDEBUG[22m[39m[0m[0m	[37musr/lib/node_modules/@getpochi/cli/dist/cli.js:497906[39m[0m[0m[1m[37m	MjpegToMp4[39m[22m[0m[0m	[ffmpeg] stderr:   libavformat    60. 16.100 / 60. 16.100
[37m2026-04-01 01:18:16.413[39m[0m[0m	[32m[1mDEBUG[22m[39m[0m[0m	[37musr/lib/node_modules/@getpochi/cli/dist/cli.js:497906[39m[0m[0m[1m[37m	MjpegToMp4[39m[22m[0m[0m	[ffmpeg] stderr:   libavdevice    60.  3.100 / 60.  3.100
[37m2026-04-01 01:18:16.413[39m[0m[0m	[32m[1mDEBUG[22m[39m[0m[0m	[37musr/lib/node_modules/@getpochi/cli/dist/cli.js:497906[39m[0m[0m[1m[37m	MjpegToMp4[39m[22m[0m[0m	[ffmpeg] stderr:   libavfilter     9. 12.100 /  9. 12.100
[37m2026-04-01 01:18:16.413[39m[0m[0m	[32m[1mDEBUG[22m[39m[0m[0m	[37musr/lib/node_modules/@getpochi/cli/dist/cli.js:497906[39m[0m[0m[1m[37m	MjpegToMp4[39m[22m[0m[0m	[ffmpeg] stderr:   libswscale      7.  5.100 /  7.  5.100
[37m2026-04-01 01:18:16.413[39m[0m[0m	[32m[1mDEBUG[22m[39m[0m[0m	[37musr/lib/node_modules/@getpochi/cli/dist/cli.js:497906[39m[0m[0m[1m[37m	MjpegToMp4[39m[22m[0m[0m	[ffmpeg] stderr:   libswresample   4. 12.100 /  4. 12.100
[37m2026-04-01 01:18:16.413[39m[0m[0m	[32m[1mDEBUG[22m[39m[0m[0m	[37musr/lib/node_modules/@getpochi/cli/dist/cli.js:497906[39m[0m[0m[1m[37m	MjpegToMp4[39m[22m[0m[0m	[ffmpeg] stderr:   libpostproc    57.  3.100 / 57.  3.100
[37m2026-04-01 01:18:16.413[39m[0m[0m	[32m[1mDEBUG[22m[39m[0m[0m	[37musr/lib/node_modules/@getpochi/cli/dist/cli.js:497906[39m[0m[0m[1m[37m	MjpegToMp4[39m[22m[0m[0m	[ffmpeg] stderr: Input #0, concat, from '/tmp/pochi-mjpeg2mp4-GVEMOs/frames.ffconcat':
[37m2026-04-01 01:18:16.413[39m[0m[0m	[32m[1mDEBUG[22m[39m[0m[0m	[37musr/lib/node_modules/@getpochi/cli/dist/cli.js:497906[39m[0m[0m[1m[37m	MjpegToMp4[39m[22m[0m[0m	[ffmpeg] stderr:   Duration: N/A, start: 0.000000, bitrate: N/A
[37m2026-04-01 01:18:16.413[39m[0m[0m	[32m[1mDEBUG[22m[39m[0m[0m	[37musr/lib/node_modules/@getpochi/cli/dist/cli.js:497906[39m[0m[0m[1m[37m	MjpegToMp4[39m[22m[0m[0m	[ffmpeg] stderr:   Stream #0:0: Video: mjpeg (Baseline), yuvj420p(pc, bt470bg/unknown/unknown), 1280x720 [SAR 1:1 DAR 16:9], 25 fps, 25 tbr, 25 tbn
[37m2026-04-01 01:18:16.414[39m[0m[0m	[32m[1mDEBUG[22m[39m[0m[0m	[37musr/lib/node_modules/@getpochi/cli/dist/cli.js:497906[39m[0m[0m[1m[37m	MjpegToMp4[39m[22m[0m[0m	[ffmpeg] stderr: Stream mapping:
[37m2026-04-01 01:18:16.414[39m[0m[0m	[32m[1mDEBUG[22m[39m[0m[0m	[37musr/lib/node_modules/@getpochi/cli/dist/cli.js:497906[39m[0m[0m[1m[37m	MjpegToMp4[39m[22m[0m[0m	[ffmpeg] stderr:   Stream #0:0 -> #0:0 (mjpeg (native) -> h264 (libx264))
[37m2026-04-01 01:18:16.414[39m[0m[0m	[32m[1mDEBUG[22m[39m[0m[0m	[37musr/lib/node_modules/@getpochi/cli/dist/cli.js:497906[39m[0m[0m[1m[37m	MjpegToMp4[39m[22m[0m[0m	[ffmpeg] stderr: Press [q] to stop, [?] for help
[37m2026-04-01 01:18:16.415[39m[0m[0m	[32m[1mDEBUG[22m[39m[0m[0m	[37musr/lib/node_modules/@getpochi/cli/dist/cli.js:497906[39m[0m[0m[1m[37m	MjpegToMp4[39m[22m[0m[0m	[ffmpeg] stderr: [swscaler @ 0x56379be68040] deprecated pixel format used, make sure you did set range correctly
[37m2026-04-01 01:18:16.421[39m[0m[0m	[32m[1mDEBUG[22m[39m[0m[0m	[37musr/lib/node_modules/@getpochi/cli/dist/cli.js:497906[39m[0m[0m[1m[37m	MjpegToMp4[39m[22m[0m[0m	[ffmpeg] stderr:     Last message repeated 1 times
[37m2026-04-01 01:18:16.421[39m[0m[0m	[32m[1mDEBUG[22m[39m[0m[0m	[37musr/lib/node_modules/@getpochi/cli/dist/cli.js:497906[39m[0m[0m[1m[37m	MjpegToMp4[39m[22m[0m[0m	[ffmpeg] stderr: [swscaler @ 0x56379c1a0d40] deprecated pixel format used, make sure you did set range correctly
[37m2026-04-01 01:18:16.427[39m[0m[0m	[32m[1mDEBUG[22m[39m[0m[0m	[37musr/lib/node_modules/@getpochi/cli/dist/cli.js:497906[39m[0m[0m[1m[37m	MjpegToMp4[39m[22m[0m[0m	[ffmpeg] stderr:     Last message repeated 1 times
[37m2026-04-01 01:18:16.427[39m[0m[0m	[32m[1mDEBUG[22m[39m[0m[0m	[37musr/lib/node_modules/@getpochi/cli/dist/cli.js:497906[39m[0m[0m[1m[37m	MjpegToMp4[39m[22m[0m[0m	[ffmpeg] stderr: [libx264 @ 0x56379be4ec00] using SAR=2560/2559
[37m2026-04-01 01:18:16.427[39m[0m[0m	[32m[1mDEBUG[22m[39m[0m[0m	[37musr/lib/node_modules/@getpochi/cli/dist/cli.js:497906[39m[0m[0m[1m[37m	MjpegToMp4[39m[22m[0m[0m	[ffmpeg] stderr: [libx264 @ 0x56379be4ec00] using cpu capabilities: MMX2 SSE2Fast SSSE3 SSE4.2 AVX FMA3 BMI2 AVX2
[37m2026-04-01 01:18:16.428[39m[0m[0m	[32m[1mDEBUG[22m[39m[0m[0m	[37musr/lib/node_modules/@getpochi/cli/dist/cli.js:497906[39m[0m[0m[1m[37m	MjpegToMp4[39m[22m[0m[0m	[ffmpeg] stderr: [libx264 @ 0x56379be4ec00] profile High, level 3.0, 4:2:0, 8-bit
[37m2026-04-01 01:18:16.428[39m[0m[0m	[32m[1mDEBUG[22m[39m[0m[0m	[37musr/lib/node_modules/@getpochi/cli/dist/cli.js:497906[39m[0m[0m[1m[37m	MjpegToMp4[39m[22m[0m[0m	[ffmpeg] stderr: [libx264 @ 0x56379be4ec00] 264 - core 164 r3108 31e19f9 - H.264/MPEG-4 AVC codec - Copyleft 2003-2023 - http://www.videolan.org/x264.html - options: cabac=1 ref=1 deblock=1:0:0 analyse=0x3:0x113 me=hex subme=2 psy=1 psy_rd=1.00:0.00 mixed_ref=0 me_range=16 chroma_me=1 trellis=0 8x8dct=1 cqm=0 deadzone=21,11 fast_pskip=1 chroma_qp_offset=0 threads=15 lookahead_threads=3 sliced_threads=0 nr=0 decimate=1 interlaced=0 bluray_compat=0 constrained_intra=0 bframes=3 b_pyramid=2 b_adapt=1 b_bias=0 direct=1 weightb=1 open_gop=0 weightp=1 keyint=250 keyint_min=25 scenecut=40 intra_refresh=0 rc_lookahead=10 rc=crf mbtree=1 crf=23.0 qcomp=0.60 qpmin=0 qpmax=69 qpstep=4 ip_ratio=1.40 aq=1:1.00
[37m2026-04-01 01:18:16.428[39m[0m[0m	[32m[1mDEBUG[22m[39m[0m[0m	[37musr/lib/node_modules/@getpochi/cli/dist/cli.js:497906[39m[0m[0m[1m[37m	MjpegToMp4[39m[22m[0m[0m	[ffmpeg] stderr: Output #0, mp4, to '/tmp/pochi-browser-agent-video-926bea5d-bb48-4a0b-9c6d-048e036f8dd1.mp4':
[37m2026-04-01 01:18:16.428[39m[0m[0m	[32m[1mDEBUG[22m[39m[0m[0m	[37musr/lib/node_modules/@getpochi/cli/dist/cli.js:497906[39m[0m[0m[1m[37m	MjpegToMp4[39m[22m[0m[0m	[ffmpeg] stderr:   Metadata:
[37m2026-04-01 01:18:16.429[39m[0m[0m	[32m[1mDEBUG[22m[39m[0m[0m	[37musr/lib/node_modules/@getpochi/cli/dist/cli.js:497906[39m[0m[0m[1m[37m	MjpegToMp4[39m[22m[0m[0m	[ffmpeg] stderr:     encoder         : Lavf60.16.100
[37m2026-04-01 01:18:16.429[39m[0m[0m	[32m[1mDEBUG[22m[39m[0m[0m	[37musr/lib/node_modules/@getpochi/cli/dist/cli.js:497906[39m[0m[0m[1m[37m	MjpegToMp4[39m[22m[0m[0m	[ffmpeg] stderr:   Stream #0:0: Video: h264 (avc1 / 0x31637661), yuv420p(tv, bt470bg/unknown/unknown, progressive), 854x480 [SAR 2560:2559 DAR 13664:7677], q=2-31, 25 fps, 12800 tbn
[37m2026-04-01 01:18:16.429[39m[0m[0m	[32m[1mDEBUG[22m[39m[0m[0m	[37musr/lib/node_modules/@getpochi/cli/dist/cli.js:497906[39m[0m[0m[1m[37m	MjpegToMp4[39m[22m[0m[0m	[ffmpeg] stderr:     Metadata:
[37m2026-04-01 01:18:16.429[39m[0m[0m	[32m[1mDEBUG[22m[39m[0m[0m	[37musr/lib/node_modules/@getpochi/cli/dist/cli.js:497906[39m[0m[0m[1m[37m	MjpegToMp4[39m[22m[0m[0m	[ffmpeg] stderr:       encoder         : Lavc60.31.102 libx264
[37m2026-04-01 01:18:16.429[39m[0m[0m	[32m[1mDEBUG[22m[39m[0m[0m	[37musr/lib/node_modules/@getpochi/cli/dist/cli.js:497906[39m[0m[0m[1m[37m	MjpegToMp4[39m[22m[0m[0m	[ffmpeg] stderr:     Side data:
[37m2026-04-01 01:18:16.429[39m[0m[0m	[32m[1mDEBUG[22m[39m[0m[0m	[37musr/lib/node_modules/@getpochi/cli/dist/cli.js:497906[39m[0m[0m[1m[37m	MjpegToMp4[39m[22m[0m[0m	[ffmpeg] stderr:       cpb: bitrate max/min/avg: 0/0/0 buffer size: 0 vbv_delay: N/A
[37m2026-04-01 01:18:16.429[39m[0m[0m	[32m[1mDEBUG[22m[39m[0m[0m	[37musr/lib/node_modules/@getpochi/cli/dist/cli.js:497906[39m[0m[0m[1m[37m	MjpegToMp4[39m[22m[0m[0m	[ffmpeg] stderr: frame=    0 fps=0.0 q=0.0 size=       0kB time=N/A bitrate=N/A speed=N/A    
[37m2026-04-01 01:18:16.549[39m[0m[0m	[32m[1mDEBUG[22m[39m[0m[0m	[37musr/lib/node_modules/@getpochi/cli/dist/cli.js:497906[39m[0m[0m[1m[37m	MjpegToMp4[39m[22m[0m[0m	[ffmpeg] stderr: [mjpeg @ 0x56379be425c0] EOI missing, emulating
[37m2026-04-01 01:18:17.157[39m[0m[0m	[32m[1mDEBUG[22m[39m[0m[0m	[37musr/lib/node_modules/@getpochi/cli/dist/cli.js:497906[39m[0m[0m[1m[37m	MjpegToMp4[39m[22m[0m[0m	[ffmpeg] stderr: frame=  491 fps=0.0 q=28.0 size=       0kB time=00:00:19.56 bitrate=   0.0kbits/s dup=514 drop=0 speed=26.5x    
[37m2026-04-01 01:18:17.249[39m[0m[0m	[32m[1mDEBUG[22m[39m[0m[0m	[37musr/lib/node_modules/@getpochi/cli/dist/cli.js:497906[39m[0m[0m[1m[37m	MjpegToMp4[39m[22m[0m[0m	[ffmpeg] stderr: [mp4 @ 0x56379be4a900] Starting second pass: moving the moov atom to the beginning of the file
[37m2026-04-01 01:18:17.250[39m[0m[0m	[32m[1mDEBUG[22m[39m[0m[0m	[37musr/lib/node_modules/@getpochi/cli/dist/cli.js:497906[39m[0m[0m[1m[37m	MjpegToMp4[39m[22m[0m[0m	[ffmpeg] stderr: [out#0/mp4 @ 0x56379be44340] video:28kB audio:0kB subtitle:0kB other streams:0kB global headers:0kB muxing overhead: 26.043201%
[37m2026-04-01 01:18:17.250[39m[0m[0m	[32m[1mDEBUG[22m[39m[0m[0m	[37musr/lib/node_modules/@getpochi/cli/dist/cli.js:497906[39m[0m[0m[1m[37m	MjpegToMp4[39m[22m[0m[0m	[ffmpeg] stderr: frame=  546 fps=0.0 q=-1.0 Lsize=      35kB time=00:00:21.72 bitrate=  13.2kbits/s dup=537 drop=0 speed=  26x    
[37m2026-04-01 01:18:17.251[39m[0m[0m	[32m[1mDEBUG[22m[39m[0m[0m	[37musr/lib/node_modules/@getpochi/cli/dist/cli.js:497906[39m[0m[0m[1m[37m	MjpegToMp4[39m[22m[0m[0m	[ffmpeg] stderr: [libx264 @ 0x56379be4ec00] frame I:4     Avg QP: 8.46  size:  3390
[37m2026-04-01 01:18:17.251[39m[0m[0m	[32m[1mDEBUG[22m[39m[0m[0m	[37musr/lib/node_modules/@getpochi/cli/dist/cli.js:497906[39m[0m[0m[1m[37m	MjpegToMp4[39m[22m[0m[0m	[ffmpeg] stderr: [libx264 @ 0x56379be4ec00] frame P:137   Avg QP:10.83  size:    34
[37m2026-04-01 01:18:17.251[39m[0m[0m	[32m[1mDEBUG[22m[39m[0m[0m	[37musr/lib/node_modules/@getpochi/cli/dist/cli.js:497906[39m[0m[0m[1m[37m	MjpegToMp4[39m[22m[0m[0m	[ffmpeg] stderr: [libx264 @ 0x56379be4ec00] frame B:405   Avg QP:12.67  size:    24
[37m2026-04-01 01:18:17.251[39m[0m[0m	[32m[1mDEBUG[22m[39m[0m[0m	[37musr/lib/node_modules/@getpochi/cli/dist/cli.js:497906[39m[0m[0m[1m[37m	MjpegToMp4[39m[22m[0m[0m	[ffmpeg] stderr: [libx264 @ 0x56379be4ec00] consecutive B-frames:  1.1%  0.0%  0.0% 98.9%
[37m2026-04-01 01:18:17.251[39m[0m[0m	[32m[1mDEBUG[22m[39m[0m[0m	[37musr/lib/node_modules/@getpochi/cli/dist/cli.js:497906[39m[0m[0m[1m[37m	MjpegToMp4[39m[22m[0m[0m	[ffmpeg] stderr: [libx264 @ 0x56379be4ec00] mb I  I16..4: 96.1%  0.0%  3.8%
[37m2026-04-01 01:18:17.251[39m[0m[0m	[32m[1mDEBUG[22m[39m[0m[0m	[37musr/lib/node_modules/@getpochi/cli/dist/cli.js:497906[39m[0m[0m[1m[37m	MjpegToMp4[39m[22m[0m[0m	[ffmpeg] stderr: [libx264 @ 0x56379be4ec00] mb P  I16..4:  0.0%  0.0%  0.0%  P16..4:  0.0%  0.0%  0.0%  0.0%  0.0%    skip:99.9%
[37m2026-04-01 01:18:17.251[39m[0m[0m	[32m[1mDEBUG[22m[39m[0m[0m	[37musr/lib/node_modules/@getpochi/cli/dist/cli.js:497906[39m[0m[0m[1m[37m	MjpegToMp4[39m[22m[0m[0m	[ffmpeg] stderr: [libx264 @ 0x56379be4ec00] mb B  I16..4:  0.0%  0.0%  0.0%  B16..8:  0.0%  0.0%  0.0%  direct: 0.0%  skip:100.0%  L0:31.0% L1:69.0% BI: 0.0%
[37m2026-04-01 01:18:17.252[39m[0m[0m	[32m[1mDEBUG[22m[39m[0m[0m	[37musr/lib/node_modules/@getpochi/cli/dist/cli.js:497906[39m[0m[0m[1m[37m	MjpegToMp4[39m[22m[0m[0m	[ffmpeg] stderr: [libx264 @ 0x56379be4ec00] 8x8 transform intra:0.0% inter:61.3%
[37m2026-04-01 01:18:17.252[39m[0m[0m	[32m[1mDEBUG[22m[39m[0m[0m	[37musr/lib/node_modules/@getpochi/cli/dist/cli.js:497906[39m[0m[0m[1m[37m	MjpegToMp4[39m[22m[0m[0m	[ffmpeg] stderr: [libx264 @ 0x56379be4ec00] coded y,uvDC,uvAC intra: 2.3% 2.8% 2.7% inter: 0.0% 0.0% 0.0%
[37m2026-04-01 01:18:17.252[39m[0m[0m	[32m[1mDEBUG[22m[39m[0m[0m	[37musr/lib/node_modules/@getpochi/cli/dist/cli.js:497906[39m[0m[0m[1m[37m	MjpegToMp4[39m[22m[0m[0m	[ffmpeg] stderr: [libx264 @ 0x56379be4ec00] i16 v,h,dc,p: 95%  2%  3%  0%
[37m2026-04-01 01:18:17.252[39m[0m[0m	[32m[1mDEBUG[22m[39m[0m[0m	[37musr/lib/node_modules/@getpochi/cli/dist/cli.js:497906[39m[0m[0m[1m[37m	MjpegToMp4[39m[22m[0m[0m	[ffmpeg] stderr: [libx264 @ 0x56379be4ec00] i8 v,h,dc,ddl,ddr,vr,hd,vl,hu: 25%  0% 75%  0%  0%  0%  0%  0%  0%
[37m2026-04-01 01:18:17.252[39m[0m[0m	[32m[1mDEBUG[22m[39m[0m[0m	[37musr/lib/node_modules/@getpochi/cli/dist/cli.js:497906[39m[0m[0m[1m[37m	MjpegToMp4[39m[22m[0m[0m	[ffmpeg] stderr: [libx264 @ 0x56379be4ec00] i4 v,h,dc,ddl,ddr,vr,hd,vl,hu: 29% 31% 19%  2%  4%  3%  4%  3%  5%
[37m2026-04-01 01:18:17.252[39m[0m[0m	[32m[1mDEBUG[22m[39m[0m[0m	[37musr/lib/node_modules/@getpochi/cli/dist/cli.js:497906[39m[0m[0m[1m[37m	MjpegToMp4[39m[22m[0m[0m	[ffmpeg] stderr: [libx264 @ 0x56379be4ec00] i8c dc,h,v,p: 98%  1%  1%  0%
[37m2026-04-01 01:18:17.252[39m[0m[0m	[32m[1mDEBUG[22m[39m[0m[0m	[37musr/lib/node_modules/@getpochi/cli/dist/cli.js:497906[39m[0m[0m[1m[37m	MjpegToMp4[39m[22m[0m[0m	[ffmpeg] stderr: [libx264 @ 0x56379be4ec00] Weighted P-Frames: Y:0.0% UV:0.0%
[37m2026-04-01 01:18:17.252[39m[0m[0m	[32m[1mDEBUG[22m[39m[0m[0m	[37musr/lib/node_modules/@getpochi/cli/dist/cli.js:497906[39m[0m[0m[1m[37m	MjpegToMp4[39m[22m[0m[0m	[ffmpeg] stderr: [libx264 @ 0x56379be4ec00] kb/s:10.19
[37m2026-04-01 01:18:17.264[39m[0m[0m	[32m[1mDEBUG[22m[39m[0m[0m	[37musr/lib/node_modules/@getpochi/cli/dist/cli.js:497906[39m[0m[0m[1m[37m	MjpegToMp4[39m[22m[0m[0m	[ffmpeg] stderr: 
[37m2026-04-01 01:18:17.264[39m[0m[0m	[32m[1mDEBUG[22m[39m[0m[0m	[37musr/lib/node_modules/@getpochi/cli/dist/cli.js:497910[39m[0m[0m[1m[37m	MjpegToMp4[39m[22m[0m[0m	[ffmpeg] end
[37m2026-04-01 01:18:32.086[39m[0m[0m	[32m[1mDEBUG[22m[39m[0m[0m	[37musr/lib/node_modules/@getpochi/cli/dist/cli.js:498253[39m[0m[0m[1m[37m	listFiles[39m[22m[0m[0m	handling listFile with dirPath . and recursive [33mtrue[39m
[37m2026-04-01 01:18:32.176[39m[0m[0m	[32m[1mDEBUG[22m[39m[0m[0m	[37musr/lib/node_modules/@getpochi/cli/dist/cli.js:498092[39m[0m[0m[1m[37m	ignoreWalk[39m[22m[0m[0m	MaxScanItems (10000) reached or exceeded. Halting traversal.
[37m2026-04-01 01:18:36.785[39m[0m[0m	[32m[1mDEBUG[22m[39m[0m[0m	[37musr/lib/node_modules/@getpochi/cli/dist/cli.js:498253[39m[0m[0m[1m[37m	listFiles[39m[22m[0m[0m	handling listFile with dirPath /home/user/counter-app and recursive [33mtrue[39m
[37m2026-04-01 01:18:36.834[39m[0m[0m	[32m[1mDEBUG[22m[39m[0m[0m	[37musr/lib/node_modules/@getpochi/cli/dist/cli.js:498092[39m[0m[0m[1m[37m	ignoreWalk[39m[22m[0m[0m	MaxScanItems (10000) reached or exceeded. Halting traversal.
[37m2026-04-01 01:18:56.233[39m[0m[0m	[32m[1mDEBUG[22m[39m[0m[0m	[37musr/lib/node_modules/@getpochi/cli/dist/cli.js:545870[39m[0m[0m[1m[37m	TaskRunner[39m[22m[0m[0m	Starting TaskRunner...
[37m2026-04-01 01:18:56.263[39m[0m[0m	[32m[1mDEBUG[22m[39m[0m[0m	[37musr/lib/node_modules/@getpochi/cli/dist/cli.js:540293[39m[0m[0m[1m[37m	generateTaskTitle[39m[22m[0m[0m	Generating task title, old: null, new: Navigate to http://localhost:3000.
[37m2026-04-01 01:19:17.451[39m[0m[0m	[32m[1mDEBUG[22m[39m[0m[0m	[37musr/lib/node_modules/@getpochi/cli/dist/cli.js:540293[39m[0m[0m[1m[37m	generateTaskTitle[39m[22m[0m[0m	Generating task title, old: Navigate to http://localhost:3000., new: Verify counter functionality on localhost
[37m2026-04-01 01:19:27.597[39m[0m[0m	[32m[1mDEBUG[22m[39m[0m[0m	[37musr/lib/node_modules/@getpochi/cli/dist/cli.js:545482[39m[0m[0m[1m[37m	newTask[39m[22m[0m[0m	Browser stream webSocket connected.
[37m2026-04-01 01:19:27.611[39m[0m[0m	[32m[1mDEBUG[22m[39m[0m[0m	[37musr/lib/node_modules/@getpochi/cli/dist/cli.js:497856[39m[0m[0m[1m[37m	MjpegToMp4[39m[22m[0m[0m	Saved frame 0: 1775006367.60606
[37m2026-04-01 01:19:39.179[39m[0m[0m	[32m[1mDEBUG[22m[39m[0m[0m	[37musr/lib/node_modules/@getpochi/cli/dist/cli.js:497856[39m[0m[0m[1m[37m	MjpegToMp4[39m[22m[0m[0m	Saved frame 1: 1775006379.162726
[37m2026-04-01 01:19:39.219[39m[0m[0m	[32m[1mDEBUG[22m[39m[0m[0m	[37musr/lib/node_modules/@getpochi/cli/dist/cli.js:497856[39m[0m[0m[1m[37m	MjpegToMp4[39m[22m[0m[0m	Saved frame 2: 1775006379.205022
[37m2026-04-01 01:19:49.589[39m[0m[0m	[32m[1mDEBUG[22m[39m[0m[0m	[37musr/lib/node_modules/@getpochi/cli/dist/cli.js:497856[39m[0m[0m[1m[37m	MjpegToMp4[39m[22m[0m[0m	Saved frame 3: 1775006389.574798
[37m2026-04-01 01:19:49.608[39m[0m[0m	[32m[1mDEBUG[22m[39m[0m[0m	[37musr/lib/node_modules/@getpochi/cli/dist/cli.js:497856[39m[0m[0m[1m[37m	MjpegToMp4[39m[22m[0m[0m	Saved frame 4: 1775006389.595094
[37m2026-04-01 01:20:01.279[39m[0m[0m	[32m[1mDEBUG[22m[39m[0m[0m	[37musr/lib/node_modules/@getpochi/cli/dist/cli.js:497856[39m[0m[0m[1m[37m	MjpegToMp4[39m[22m[0m[0m	Saved frame 5: 1775006401.261303
[37m2026-04-01 01:20:01.325[39m[0m[0m	[32m[1mDEBUG[22m[39m[0m[0m	[37musr/lib/node_modules/@getpochi/cli/dist/cli.js:497856[39m[0m[0m[1m[37m	MjpegToMp4[39m[22m[0m[0m	Saved frame 6: 1775006401.31411
[37m2026-04-01 01:20:02.719[39m[0m[0m	[32m[1mDEBUG[22m[39m[0m[0m	[37musr/lib/node_modules/@getpochi/cli/dist/cli.js:497856[39m[0m[0m[1m[37m	MjpegToMp4[39m[22m[0m[0m	Saved frame 7: 1775006402.629044
[37m2026-04-01 01:20:18.204[39m[0m[0m	[32m[1mDEBUG[22m[39m[0m[0m	[37musr/lib/node_modules/@getpochi/cli/dist/cli.js:497906[39m[0m[0m[1m[37m	MjpegToMp4[39m[22m[0m[0m	[ffmpeg] start: ffmpeg -safe 0 -f concat -i /tmp/pochi-mjpeg2mp4-rWSy4d/frames.ffconcat -y -vcodec libx264 -filter:v scale=854:480:force_original_aspect_ratio=decrease,pad=854:480:(ow-iw)/2:(oh-ih)/2:color=black -pix_fmt yuv420p -movflags +faststart -preset veryfast -crf 23 -an -f mp4 /tmp/pochi-browser-agent-video-25ebda51-cafc-4d21-a806-4a743e7f2d40.mp4
[37m2026-04-01 01:20:18.227[39m[0m[0m	[32m[1mDEBUG[22m[39m[0m[0m	[37musr/lib/node_modules/@getpochi/cli/dist/cli.js:497906[39m[0m[0m[1m[37m	MjpegToMp4[39m[22m[0m[0m	[ffmpeg] stderr: ffmpeg version 6.1.1-3ubuntu5 Copyright (c) 2000-2023 the FFmpeg developers
[37m2026-04-01 01:20:18.227[39m[0m[0m	[32m[1mDEBUG[22m[39m[0m[0m	[37musr/lib/node_modules/@getpochi/cli/dist/cli.js:497906[39m[0m[0m[1m[37m	MjpegToMp4[39m[22m[0m[0m	[ffmpeg] stderr:   built with gcc 13 (Ubuntu 13.2.0-23ubuntu3)
[37m2026-04-01 01:20:18.227[39m[0m[0m	[32m[1mDEBUG[22m[39m[0m[0m	[37musr/lib/node_modules/@getpochi/cli/dist/cli.js:497906[39m[0m[0m[1m[37m	MjpegToMp4[39m[22m[0m[0m	[ffmpeg] stderr:   configuration: --prefix=/usr --extra-version=3ubuntu5 --toolchain=hardened --libdir=/usr/lib/x86_64-linux-gnu --incdir=/usr/include/x86_64-linux-gnu --arch=amd64 --enable-gpl --disable-stripping --disable-omx --enable-gnutls --enable-libaom --enable-libass --enable-libbs2b --enable-libcaca --enable-libcdio --enable-libcodec2 --enable-libdav1d --enable-libflite --enable-libfontconfig --enable-libfreetype --enable-libfribidi --enable-libglslang --enable-libgme --enable-libgsm --enable-libharfbuzz --enable-libmp3lame --enable-libmysofa --enable-libopenjpeg --enable-libopenmpt --enable-libopus --enable-librubberband --enable-libshine --enable-libsnappy --enable-libsoxr --enable-libspeex --enable-libtheora --enable-libtwolame --enable-libvidstab --enable-libvorbis --enable-libvpx --enable-libwebp --enable-libx265 --enable-libxml2 --enable-libxvid --enable-libzimg --enable-openal --enable-opencl --enable-opengl --disable-sndio --enable-libvpl --disable-libmfx --enable-libdc1394 --enable-libdrm --enable-libiec61883 --enable-chromaprint --enable-frei0r --enable-ladspa --enable-libbluray --enable-libjack --enable-libpulse --enable-librabbitmq --enable-librist --enable-libsrt --enable-libssh --enable-libsvtav1 --enable-libx264 --enable-libzmq --enable-libzvbi --enable-lv2 --enable-sdl2 --enable-libplacebo --enable-librav1e --enable-pocketsphinx --enable-librsvg --enable-libjxl --enable-shared
[37m2026-04-01 01:20:18.227[39m[0m[0m	[32m[1mDEBUG[22m[39m[0m[0m	[37musr/lib/node_modules/@getpochi/cli/dist/cli.js:497906[39m[0m[0m[1m[37m	MjpegToMp4[39m[22m[0m[0m	[ffmpeg] stderr:   libavutil      58. 29.100 / 58. 29.100
[37m2026-04-01 01:20:18.227[39m[0m[0m	[32m[1mDEBUG[22m[39m[0m[0m	[37musr/lib/node_modules/@getpochi/cli/dist/cli.js:497906[39m[0m[0m[1m[37m	MjpegToMp4[39m[22m[0m[0m	[ffmpeg] stderr:   libavcodec     60. 31.102 / 60. 31.102
[37m2026-04-01 01:20:18.227[39m[0m[0m	[32m[1mDEBUG[22m[39m[0m[0m	[37musr/lib/node_modules/@getpochi/cli/dist/cli.js:497906[39m[0m[0m[1m[37m	MjpegToMp4[39m[22m[0m[0m	[ffmpeg] stderr:   libavformat    60. 16.100 / 60. 16.100
[37m2026-04-01 01:20:18.227[39m[0m[0m	[32m[1mDEBUG[22m[39m[0m[0m	[37musr/lib/node_modules/@getpochi/cli/dist/cli.js:497906[39m[0m[0m[1m[37m	MjpegToMp4[39m[22m[0m[0m	[ffmpeg] stderr:   libavdevice    60.  3.100 / 60.  3.100
[37m2026-04-01 01:20:18.227[39m[0m[0m	[32m[1mDEBUG[22m[39m[0m[0m	[37musr/lib/node_modules/@getpochi/cli/dist/cli.js:497906[39m[0m[0m[1m[37m	MjpegToMp4[39m[22m[0m[0m	[ffmpeg] stderr:   libavfilter     9. 12.100 /  9. 12.100
[37m2026-04-01 01:20:18.227[39m[0m[0m	[32m[1mDEBUG[22m[39m[0m[0m	[37musr/lib/node_modules/@getpochi/cli/dist/cli.js:497906[39m[0m[0m[1m[37m	MjpegToMp4[39m[22m[0m[0m	[ffmpeg] stderr:   libswscale      7.  5.100 /  7.  5.100
[37m2026-04-01 01:20:18.227[39m[0m[0m	[32m[1mDEBUG[22m[39m[0m[0m	[37musr/lib/node_modules/@getpochi/cli/dist/cli.js:497906[39m[0m[0m[1m[37m	MjpegToMp4[39m[22m[0m[0m	[ffmpeg] stderr:   libswresample   4. 12.100 /  4. 12.100
[37m2026-04-01 01:20:18.227[39m[0m[0m	[32m[1mDEBUG[22m[39m[0m[0m	[37musr/lib/node_modules/@getpochi/cli/dist/cli.js:497906[39m[0m[0m[1m[37m	MjpegToMp4[39m[22m[0m[0m	[ffmpeg] stderr:   libpostproc    57.  3.100 / 57.  3.100
[37m2026-04-01 01:20:18.227[39m[0m[0m	[32m[1mDEBUG[22m[39m[0m[0m	[37musr/lib/node_modules/@getpochi/cli/dist/cli.js:497906[39m[0m[0m[1m[37m	MjpegToMp4[39m[22m[0m[0m	[ffmpeg] stderr: Input #0, concat, from '/tmp/pochi-mjpeg2mp4-rWSy4d/frames.ffconcat':
[37m2026-04-01 01:20:18.227[39m[0m[0m	[32m[1mDEBUG[22m[39m[0m[0m	[37musr/lib/node_modules/@getpochi/cli/dist/cli.js:497906[39m[0m[0m[1m[37m	MjpegToMp4[39m[22m[0m[0m	[ffmpeg] stderr:   Duration: N/A, start: 0.000000, bitrate: N/A
[37m2026-04-01 01:20:18.227[39m[0m[0m	[32m[1mDEBUG[22m[39m[0m[0m	[37musr/lib/node_modules/@getpochi/cli/dist/cli.js:497906[39m[0m[0m[1m[37m	MjpegToMp4[39m[22m[0m[0m	[ffmpeg] stderr:   Stream #0:0: Video: mjpeg (Baseline), yuvj420p(pc, bt470bg/unknown/unknown), 1280x720 [SAR 1:1 DAR 16:9], 25 fps, 25 tbr, 25 tbn
[37m2026-04-01 01:20:18.227[39m[0m[0m	[32m[1mDEBUG[22m[39m[0m[0m	[37musr/lib/node_modules/@getpochi/cli/dist/cli.js:497906[39m[0m[0m[1m[37m	MjpegToMp4[39m[22m[0m[0m	[ffmpeg] stderr: Stream mapping:
[37m2026-04-01 01:20:18.227[39m[0m[0m	[32m[1mDEBUG[22m[39m[0m[0m	[37musr/lib/node_modules/@getpochi/cli/dist/cli.js:497906[39m[0m[0m[1m[37m	MjpegToMp4[39m[22m[0m[0m	[ffmpeg] stderr:   Stream #0:0 -> #0:0 (mjpeg (native) -> h264 (libx264))
[37m2026-04-01 01:20:18.227[39m[0m[0m	[32m[1mDEBUG[22m[39m[0m[0m	[37musr/lib/node_modules/@getpochi/cli/dist/cli.js:497906[39m[0m[0m[1m[37m	MjpegToMp4[39m[22m[0m[0m	[ffmpeg] stderr: Press [q] to stop, [?] for help
[37m2026-04-01 01:20:18.230[39m[0m[0m	[32m[1mDEBUG[22m[39m[0m[0m	[37musr/lib/node_modules/@getpochi/cli/dist/cli.js:497906[39m[0m[0m[1m[37m	MjpegToMp4[39m[22m[0m[0m	[ffmpeg] stderr: [swscaler @ 0x55a626d97040] deprecated pixel format used, make sure you did set range correctly
[37m2026-04-01 01:20:18.236[39m[0m[0m	[32m[1mDEBUG[22m[39m[0m[0m	[37musr/lib/node_modules/@getpochi/cli/dist/cli.js:497906[39m[0m[0m[1m[37m	MjpegToMp4[39m[22m[0m[0m	[ffmpeg] stderr:     Last message repeated 1 times
[37m2026-04-01 01:20:18.236[39m[0m[0m	[32m[1mDEBUG[22m[39m[0m[0m	[37musr/lib/node_modules/@getpochi/cli/dist/cli.js:497906[39m[0m[0m[1m[37m	MjpegToMp4[39m[22m[0m[0m	[ffmpeg] stderr: [swscaler @ 0x55a6270cfd40] deprecated pixel format used, make sure you did set range correctly
[37m2026-04-01 01:20:18.242[39m[0m[0m	[32m[1mDEBUG[22m[39m[0m[0m	[37musr/lib/node_modules/@getpochi/cli/dist/cli.js:497906[39m[0m[0m[1m[37m	MjpegToMp4[39m[22m[0m[0m	[ffmpeg] stderr:     Last message repeated 1 times
[37m2026-04-01 01:20:18.242[39m[0m[0m	[32m[1mDEBUG[22m[39m[0m[0m	[37musr/lib/node_modules/@getpochi/cli/dist/cli.js:497906[39m[0m[0m[1m[37m	MjpegToMp4[39m[22m[0m[0m	[ffmpeg] stderr: [libx264 @ 0x55a626d7dc00] using SAR=2560/2559
[37m2026-04-01 01:20:18.242[39m[0m[0m	[32m[1mDEBUG[22m[39m[0m[0m	[37musr/lib/node_modules/@getpochi/cli/dist/cli.js:497906[39m[0m[0m[1m[37m	MjpegToMp4[39m[22m[0m[0m	[ffmpeg] stderr: [libx264 @ 0x55a626d7dc00] using cpu capabilities: MMX2 SSE2Fast SSSE3 SSE4.2 AVX FMA3 BMI2 AVX2
[37m2026-04-01 01:20:18.243[39m[0m[0m	[32m[1mDEBUG[22m[39m[0m[0m	[37musr/lib/node_modules/@getpochi/cli/dist/cli.js:497906[39m[0m[0m[1m[37m	MjpegToMp4[39m[22m[0m[0m	[ffmpeg] stderr: [libx264 @ 0x55a626d7dc00] profile High, level 3.0, 4:2:0, 8-bit
[37m2026-04-01 01:20:18.243[39m[0m[0m	[32m[1mDEBUG[22m[39m[0m[0m	[37musr/lib/node_modules/@getpochi/cli/dist/cli.js:497906[39m[0m[0m[1m[37m	MjpegToMp4[39m[22m[0m[0m	[ffmpeg] stderr: [libx264 @ 0x55a626d7dc00] 264 - core 164 r3108 31e19f9 - H.264/MPEG-4 AVC codec - Copyleft 2003-2023 - http://www.videolan.org/x264.html - options: cabac=1 ref=1 deblock=1:0:0 analyse=0x3:0x113 me=hex subme=2 psy=1 psy_rd=1.00:0.00 mixed_ref=0 me_range=16 chroma_me=1 trellis=0 8x8dct=1 cqm=0 deadzone=21,11 fast_pskip=1 chroma_qp_offset=0 threads=15 lookahead_threads=3 sliced_threads=0 nr=0 decimate=1 interlaced=0 bluray_compat=0 constrained_intra=0 bframes=3 b_pyramid=2 b_adapt=1 b_bias=0 direct=1 weightb=1 open_gop=0 weightp=1 keyint=250 keyint_min=25 scenecut=40 intra_refresh=0 rc_lookahead=10 rc=crf mbtree=1 crf=23.0 qcomp=0.60 qpmin=0 qpmax=69 qpstep=4 ip_ratio=1.40 aq=1:1.00
[37m2026-04-01 01:20:18.243[39m[0m[0m	[32m[1mDEBUG[22m[39m[0m[0m	[37musr/lib/node_modules/@getpochi/cli/dist/cli.js:497906[39m[0m[0m[1m[37m	MjpegToMp4[39m[22m[0m[0m	[ffmpeg] stderr: Output #0, mp4, to '/tmp/pochi-browser-agent-video-25ebda51-cafc-4d21-a806-4a743e7f2d40.mp4':
[37m2026-04-01 01:20:18.243[39m[0m[0m	[32m[1mDEBUG[22m[39m[0m[0m	[37musr/lib/node_modules/@getpochi/cli/dist/cli.js:497906[39m[0m[0m[1m[37m	MjpegToMp4[39m[22m[0m[0m	[ffmpeg] stderr:   Metadata:
[37m2026-04-01 01:20:18.243[39m[0m[0m	[32m[1mDEBUG[22m[39m[0m[0m	[37musr/lib/node_modules/@getpochi/cli/dist/cli.js:497906[39m[0m[0m[1m[37m	MjpegToMp4[39m[22m[0m[0m	[ffmpeg] stderr:     encoder         : Lavf60.16.100
[37m2026-04-01 01:20:18.243[39m[0m[0m	[32m[1mDEBUG[22m[39m[0m[0m	[37musr/lib/node_modules/@getpochi/cli/dist/cli.js:497906[39m[0m[0m[1m[37m	MjpegToMp4[39m[22m[0m[0m	[ffmpeg] stderr:   Stream #0:0: Video: h264 (avc1 / 0x31637661), yuv420p(tv, bt470bg/unknown/unknown, progressive), 854x480 [SAR 2560:2559 DAR 13664:7677], q=2-31, 25 fps, 12800 tbn
[37m2026-04-01 01:20:18.243[39m[0m[0m	[32m[1mDEBUG[22m[39m[0m[0m	[37musr/lib/node_modules/@getpochi/cli/dist/cli.js:497906[39m[0m[0m[1m[37m	MjpegToMp4[39m[22m[0m[0m	[ffmpeg] stderr:     Metadata:
[37m2026-04-01 01:20:18.243[39m[0m[0m	[32m[1mDEBUG[22m[39m[0m[0m	[37musr/lib/node_modules/@getpochi/cli/dist/cli.js:497906[39m[0m[0m[1m[37m	MjpegToMp4[39m[22m[0m[0m	[ffmpeg] stderr:       encoder         : Lavc60.31.102 libx264
[37m2026-04-01 01:20:18.243[39m[0m[0m	[32m[1mDEBUG[22m[39m[0m[0m	[37musr/lib/node_modules/@getpochi/cli/dist/cli.js:497906[39m[0m[0m[1m[37m	MjpegToMp4[39m[22m[0m[0m	[ffmpeg] stderr:     Side data:
[37m2026-04-01 01:20:18.243[39m[0m[0m	[32m[1mDEBUG[22m[39m[0m[0m	[37musr/lib/node_modules/@getpochi/cli/dist/cli.js:497906[39m[0m[0m[1m[37m	MjpegToMp4[39m[22m[0m[0m	[ffmpeg] stderr:       cpb: bitrate max/min/avg: 0/0/0 buffer size: 0 vbv_delay: N/A
[37m2026-04-01 01:20:18.244[39m[0m[0m	[32m[1mDEBUG[22m[39m[0m[0m	[37musr/lib/node_modules/@getpochi/cli/dist/cli.js:497906[39m[0m[0m[1m[37m	MjpegToMp4[39m[22m[0m[0m	[ffmpeg] stderr: frame=    0 fps=0.0 q=0.0 size=       0kB time=N/A bitrate=N/A speed=N/A    
[37m2026-04-01 01:20:18.308[39m[0m[0m	[32m[1mDEBUG[22m[39m[0m[0m	[37musr/lib/node_modules/@getpochi/cli/dist/cli.js:497906[39m[0m[0m[1m[37m	MjpegToMp4[39m[22m[0m[0m	[ffmpeg] stderr: [mjpeg @ 0x55a626d715c0] EOI missing, emulating
[37m2026-04-01 01:20:18.879[39m[0m[0m	[32m[1mDEBUG[22m[39m[0m[0m	[37musr/lib/node_modules/@getpochi/cli/dist/cli.js:497906[39m[0m[0m[1m[37m	MjpegToMp4[39m[22m[0m[0m	[ffmpeg] stderr: frame=  724 fps=0.0 q=28.0 size=       0kB time=00:00:28.88 bitrate=   0.0kbits/s dup=747 drop=0 speed=44.7x    
[37m2026-04-01 01:20:18.904[39m[0m[0m	[32m[1mDEBUG[22m[39m[0m[0m	[37musr/lib/node_modules/@getpochi/cli/dist/cli.js:497906[39m[0m[0m[1m[37m	MjpegToMp4[39m[22m[0m[0m	[ffmpeg] stderr: [mp4 @ 0x55a626d79900] Starting second pass: moving the moov atom to the beginning of the file
[37m2026-04-01 01:20:18.904[39m[0m[0m	[32m[1mDEBUG[22m[39m[0m[0m	[37musr/lib/node_modules/@getpochi/cli/dist/cli.js:497906[39m[0m[0m[1m[37m	MjpegToMp4[39m[22m[0m[0m	[ffmpeg] stderr: [out#0/mp4 @ 0x55a626d73340] video:34kB audio:0kB subtitle:0kB other streams:0kB global headers:0kB muxing overhead: 30.928040%
[37m2026-04-01 01:20:18.904[39m[0m[0m	[32m[1mDEBUG[22m[39m[0m[0m	[37musr/lib/node_modules/@getpochi/cli/dist/cli.js:497906[39m[0m[0m[1m[37m	MjpegToMp4[39m[22m[0m[0m	[ffmpeg] stderr: frame=  835 fps=0.0 q=-1.0 Lsize=      45kB time=00:00:33.28 bitrate=  11.1kbits/s dup=826 drop=0 speed=49.2x    
[37m2026-04-01 01:20:18.904[39m[0m[0m	[32m[1mDEBUG[22m[39m[0m[0m	[37musr/lib/node_modules/@getpochi/cli/dist/cli.js:497906[39m[0m[0m[1m[37m	MjpegToMp4[39m[22m[0m[0m	[ffmpeg] stderr: [libx264 @ 0x55a626d7dc00] frame I:4     Avg QP: 8.42  size:  3341
[37m2026-04-01 01:20:18.904[39m[0m[0m	[32m[1mDEBUG[22m[39m[0m[0m	[37musr/lib/node_modules/@getpochi/cli/dist/cli.js:497906[39m[0m[0m[1m[37m	MjpegToMp4[39m[22m[0m[0m	[ffmpeg] stderr: [libx264 @ 0x55a626d7dc00] frame P:210   Avg QP:10.53  size:    30
[37m2026-04-01 01:20:18.904[39m[0m[0m	[32m[1mDEBUG[22m[39m[0m[0m	[37musr/lib/node_modules/@getpochi/cli/dist/cli.js:497906[39m[0m[0m[1m[37m	MjpegToMp4[39m[22m[0m[0m	[ffmpeg] stderr: [libx264 @ 0x55a626d7dc00] frame B:621   Avg QP:12.67  size:    24
[37m2026-04-01 01:20:18.904[39m[0m[0m	[32m[1mDEBUG[22m[39m[0m[0m	[37musr/lib/node_modules/@getpochi/cli/dist/cli.js:497906[39m[0m[0m[1m[37m	MjpegToMp4[39m[22m[0m[0m	[ffmpeg] stderr: [libx264 @ 0x55a626d7dc00] consecutive B-frames:  0.8%  0.0%  0.0% 99.2%
[37m2026-04-01 01:20:18.904[39m[0m[0m	[32m[1mDEBUG[22m[39m[0m[0m	[37musr/lib/node_modules/@getpochi/cli/dist/cli.js:497906[39m[0m[0m[1m[37m	MjpegToMp4[39m[22m[0m[0m	[ffmpeg] stderr: [libx264 @ 0x55a626d7dc00] mb I  I16..4: 96.1%  0.0%  3.8%
[37m2026-04-01 01:20:18.904[39m[0m[0m	[32m[1mDEBUG[22m[39m[0m[0m	[37musr/lib/node_modules/@getpochi/cli/dist/cli.js:497906[39m[0m[0m[1m[37m	MjpegToMp4[39m[22m[0m[0m	[ffmpeg] stderr: [libx264 @ 0x55a626d7dc00] mb P  I16..4:  0.0%  0.0%  0.0%  P16..4:  0.0%  0.0%  0.0%  0.0%  0.0%    skip:100.0%
[37m2026-04-01 01:20:18.904[39m[0m[0m	[32m[1mDEBUG[22m[39m[0m[0m	[37musr/lib/node_modules/@getpochi/cli/dist/cli.js:497906[39m[0m[0m[1m[37m	MjpegToMp4[39m[22m[0m[0m	[ffmpeg] stderr: [libx264 @ 0x55a626d7dc00] mb B  I16..4:  0.0%  0.0%  0.0%  B16..8:  0.0%  0.0%  0.0%  direct: 0.0%  skip:100.0%  L0:14.9% L1:85.1% BI: 0.0%
[37m2026-04-01 01:20:18.904[39m[0m[0m	[32m[1mDEBUG[22m[39m[0m[0m	[37musr/lib/node_modules/@getpochi/cli/dist/cli.js:497906[39m[0m[0m[1m[37m	MjpegToMp4[39m[22m[0m[0m	[ffmpeg] stderr: [libx264 @ 0x55a626d7dc00] 8x8 transform intra:0.0% inter:66.0%
[37m2026-04-01 01:20:18.904[39m[0m[0m	[32m[1mDEBUG[22m[39m[0m[0m	[37musr/lib/node_modules/@getpochi/cli/dist/cli.js:497906[39m[0m[0m[1m[37m	MjpegToMp4[39m[22m[0m[0m	[ffmpeg] stderr: [libx264 @ 0x55a626d7dc00] coded y,uvDC,uvAC intra: 2.4% 2.7% 2.7% inter: 0.0% 0.0% 0.0%
[37m2026-04-01 01:20:18.904[39m[0m[0m	[32m[1mDEBUG[22m[39m[0m[0m	[37musr/lib/node_modules/@getpochi/cli/dist/cli.js:497906[39m[0m[0m[1m[37m	MjpegToMp4[39m[22m[0m[0m	[ffmpeg] stderr: [libx264 @ 0x55a626d7dc00] i16 v,h,dc,p: 95%  2%  3%  0%
[37m2026-04-01 01:20:18.904[39m[0m[0m	[32m[1mDEBUG[22m[39m[0m[0m	[37musr/lib/node_modules/@getpochi/cli/dist/cli.js:497906[39m[0m[0m[1m[37m	MjpegToMp4[39m[22m[0m[0m	[ffmpeg] stderr: [libx264 @ 0x55a626d7dc00] i8 v,h,dc,ddl,ddr,vr,hd,vl,hu: 25%  0% 75%  0%  0%  0%  0%  0%  0%
[37m2026-04-01 01:20:18.904[39m[0m[0m	[32m[1mDEBUG[22m[39m[0m[0m	[37musr/lib/node_modules/@getpochi/cli/dist/cli.js:497906[39m[0m[0m[1m[37m	MjpegToMp4[39m[22m[0m[0m	[ffmpeg] stderr: [libx264 @ 0x55a626d7dc00] i4 v,h,dc,ddl,ddr,vr,hd,vl,hu: 30% 31% 19%  2%  3%  3%  4%  3%  5%
[37m2026-04-01 01:20:18.904[39m[0m[0m	[32m[1mDEBUG[22m[39m[0m[0m	[37musr/lib/node_modules/@getpochi/cli/dist/cli.js:497906[39m[0m[0m[1m[37m	MjpegToMp4[39m[22m[0m[0m	[ffmpeg] stderr: [libx264 @ 0x55a626d7dc00] i8c dc,h,v,p: 98%  1%  1%  0%
[37m2026-04-01 01:20:18.904[39m[0m[0m	[32m[1mDEBUG[22m[39m[0m[0m	[37musr/lib/node_modules/@getpochi/cli/dist/cli.js:497906[39m[0m[0m[1m[37m	MjpegToMp4[39m[22m[0m[0m	[ffmpeg] stderr: [libx264 @ 0x55a626d7dc00] Weighted P-Frames: Y:0.0% UV:0.0%
[37m2026-04-01 01:20:18.904[39m[0m[0m	[32m[1mDEBUG[22m[39m[0m[0m	[37musr/lib/node_modules/@getpochi/cli/dist/cli.js:497906[39m[0m[0m[1m[37m	MjpegToMp4[39m[22m[0m[0m	[ffmpeg] stderr: [libx264 @ 0x55a626d7dc00] kb/s:8.27
[37m2026-04-01 01:20:18.953[39m[0m[0m	[32m[1mDEBUG[22m[39m[0m[0m	[37musr/lib/node_modules/@getpochi/cli/dist/cli.js:497906[39m[0m[0m[1m[37m	MjpegToMp4[39m[22m[0m[0m	[ffmpeg] stderr: 
[37m2026-04-01 01:20:18.953[39m[0m[0m	[32m[1mDEBUG[22m[39m[0m[0m	[37musr/lib/node_modules/@getpochi/cli/dist/cli.js:497910[39m[0m[0m[1m[37m	MjpegToMp4[39m[22m[0m[0m	[ffmpeg] end
[37m2026-04-01 01:20:29.930[39m[0m[0m	[32m[1mDEBUG[22m[39m[0m[0m	[37musr/lib/node_modules/@getpochi/cli/dist/cli.js:498253[39m[0m[0m[1m[37m	listFiles[39m[22m[0m[0m	handling listFile with dirPath /logs/agent and recursive [33mtrue[39m
[37m2026-04-01 01:21:15.702[39m[0m[0m	[31m[1mERROR[22m[39m[0m[0m	[37musr/lib/node_modules/@getpochi/cli/dist/cli.js:544597[39m[0m[0m[1m[37m	LiveChatKit[39m[22m[0m[0m	onError

[97m[101m[1m Error [22m[49m[39m[0m[0m fetch failed[0m[0m
error stack:
  • [33mcli.js[39m[0m[0m	[0m[0m
	[37musr/lib/node_modules/@getpochi/cli/dist/cli.js:472747[39m[0m[0m
  • [33mcli.js[39m[0m[0m	[0m[0m
	[37musr/lib/node_modules/@getpochi/cli/dist/cli.js:476418[39m[0m[0m
  • [33mcli.js[39m[0m[0m	Array.<anonymous>[0m[0m
	[37musr/lib/node_modules/@getpochi/cli/dist/cli.js:475396[39m[0m[0m
  • [33mcli.js[39m[0m[0m	SerialJobExecutor.processQueue[0m[0m
	[37musr/lib/node_modules/@getpochi/cli/dist/cli.js:475387[39m[0m[0m
  • [33mcli.js[39m[0m[0m	[0m[0m
	[37musr/lib/node_modules/@getpochi/cli/dist/cli.js:475402[39m[0m[0m
  • [33m[39m[0m[0m	[0m[0m
	[37m[39m[0m[0m
  • [33mcli.js[39m[0m[0m	SerialJobExecutor.run[0m[0m
	[37musr/lib/node_modules/@getpochi/cli/dist/cli.js:475393[39m[0m[0m
  • [33mcli.js[39m[0m[0m	runUpdateMessageJob[0m[0m
	[37musr/lib/node_modules/@getpochi/cli/dist/cli.js:476418[39m[0m[0m
  • [33mcli.js[39m[0m[0m	Object.transform[0m[0m
	[37musr/lib/node_modules/@getpochi/cli/dist/cli.js:472384[39m[0m[0m
  • [33mutil[39m[0m[0m	invokePromiseCallback[0m[0m
	[37minternalwebstreams/util:172[39m[0m[0m[0m[0m
[37m2026-04-01 01:21:15.710[39m[0m[0m	[31m[1mERROR[22m[39m[0m[0m	[37musr/lib/node_modules/@getpochi/cli/dist/cli.js:546027[39m[0m[0m[1m[37m	TaskRunner[39m[22m[0m[0m	Task is failed, trying to resend last message to resume it. {
  kind: [32m'InternalError'[39m,
  message: [32m'fetch failed'[39m
}
